<svg width="40" height="22" viewBox="0 0 40 22" fill="none" xmlns="http://www.w3.org/2000/svg">
<g clip-path="url(#clip0_65_220)">
<path fill-rule="evenodd" clip-rule="evenodd" d="M9.35768 3.68974C9.35735 3.70217 9.3465 3.71431 9.33302 3.74209L9.32874 3.73564C9.13082 3.43687 8.94393 3.15477 8.97156 2.78882C8.97461 2.74846 8.96368 2.70509 8.95096 2.66581C8.91083 2.54192 8.93575 2.44143 9.04031 2.35916C9.08968 2.32032 9.14126 2.26714 9.11435 2.1995C9.0883 2.13403 9.01883 2.11303 8.95132 2.10407C8.82113 2.08678 8.71328 2.1451 8.61241 2.2147C8.35639 2.39134 8.07826 2.52571 7.79761 2.65611C7.37791 2.85113 6.93835 2.99386 6.50644 3.15703C6.17694 3.28152 6.14304 3.4044 6.33332 3.69858C6.4006 3.80259 6.46345 3.9073 6.45579 4.03623C6.43854 4.32679 6.50298 4.57917 6.74797 4.76734C6.84034 4.83829 6.84401 4.94723 6.79196 5.05362C6.76137 5.11616 6.71966 5.17725 6.70714 5.24359C6.69335 5.31671 6.65624 5.35325 6.59457 5.37783C6.46519 5.4294 6.40855 5.5253 6.41673 5.66456C6.42362 5.78189 6.40126 5.89263 6.33629 5.99405C6.31431 6.02837 6.30045 6.07048 6.29259 6.11094C6.25971 6.28013 6.17464 6.42272 6.07376 6.55763C5.99448 6.66366 5.91493 6.76953 5.83343 6.87384C5.61972 7.14739 5.58988 7.43606 5.76133 7.74109C5.9332 8.04687 5.90266 8.36418 5.82006 8.68592C5.80094 8.76039 5.75768 8.78981 5.68465 8.78075C5.52278 8.76066 5.36098 8.74009 5.19913 8.71986C5.18174 8.71768 5.16352 8.71636 5.15422 8.69883C5.08434 8.56707 4.97882 8.44017 4.99742 8.28543C5.01283 8.15728 4.95821 8.08452 4.87965 8.00846C4.82214 7.95279 4.76767 7.8939 4.713 7.83536C4.69188 7.81275 4.66055 7.78898 4.65693 7.76256C4.64291 7.66033 4.58019 7.59443 4.50919 7.53024C4.4763 7.50052 4.43721 7.46451 4.45095 7.41452C4.48006 7.30861 4.47681 7.20007 4.48428 7.09262C4.48861 7.0304 4.51344 7.01163 4.57393 7.00731C4.75237 6.99459 4.76568 6.97383 4.73635 6.79405C4.72793 6.74246 4.71885 6.69097 4.7109 6.6393C4.70605 6.60782 4.70202 6.57296 4.72504 6.54897C4.83332 6.43615 4.80661 6.31446 4.75303 6.18982C4.70602 6.08046 4.713 5.97987 4.79878 5.89034C4.833 5.85462 4.85521 5.81117 4.86638 5.76233C4.89074 5.65583 4.95231 5.59521 5.06462 5.57862C5.13488 5.56825 5.22121 5.54973 5.23126 5.46132C5.24193 5.36755 5.15398 5.33921 5.08959 5.30061C5.06889 5.2882 5.04562 5.27976 5.02292 5.27113C4.81063 5.19043 4.5925 5.13651 4.36509 5.12217C4.13586 5.10771 3.90825 5.08749 3.69856 4.97732C3.46198 4.85301 3.20492 4.84537 2.94635 4.85959C2.78896 4.86824 2.75932 4.88998 2.80306 5.08666C2.809 5.11341 2.82175 5.13945 2.83534 5.16355C2.97144 5.40494 2.89546 5.63687 2.78777 5.85656C2.73636 5.96145 2.70011 6.05814 2.74871 6.16287C2.81118 6.29747 2.80766 6.42378 2.76313 6.56323C2.70854 6.73421 2.65151 6.78437 2.47631 6.75016C2.29943 6.71562 2.12294 6.72893 1.94675 6.74436C1.85434 6.75246 1.75671 6.76274 1.68613 6.83515C1.60501 6.91838 1.50643 6.96662 1.39529 6.98734C1.27695 7.00941 1.19245 7.08523 1.13135 7.17507C1.0195 7.33948 0.871402 7.39136 0.686099 7.36028C0.496823 7.32854 0.306095 7.32395 0.11507 7.31805C0.0374918 7.31565 0.00481408 7.33714 0.00511642 7.42407C0.00813356 8.28971 0.00802514 9.15536 0.00545212 10.021C0.00516646 10.117 0.0493081 10.145 0.132087 10.1404C0.163192 10.1387 0.194565 10.1347 0.22492 10.1278C0.287081 10.1137 0.321112 10.1367 0.340862 10.1979C0.36443 10.2709 0.38908 10.3601 0.458835 10.3889C0.595244 10.4454 0.550513 10.5283 0.517128 10.6186C0.48904 10.6946 0.459321 10.7689 0.390081 10.8177C0.368975 10.8326 0.361342 10.8488 0.356815 10.8763C0.325528 11.0669 0.307855 11.2612 0.240108 11.4434C0.181873 11.6 0.112239 11.7523 0.04857 11.9069C0.0301147 11.9517 0.0107295 11.9957 0.00649467 12.0461C-0.0147775 12.299 0.00991424 12.5397 0.175938 12.747C0.195353 12.7712 0.207451 12.8012 0.225097 12.827C0.245043 12.8563 0.24379 12.8843 0.230472 12.9158C0.172164 13.0537 0.120208 13.1946 0.0554445 13.3293C0.0226396 13.3976 0.00586497 13.4627 0.00589833 13.5381C0.00697396 16.0282 0.00694867 18.5183 0.00692338 21.0084L0.00691586 22.0096C0.00691586 22.2554 0.0069159 22.2554 0.247268 22.2554L39.7487 22.2554C39.7973 22.2554 39.8465 22.2509 39.8945 22.2562C39.9737 22.2651 40.0001 22.2403 40 22.1547C39.9973 20.5596 39.9972 18.9644 39.9999 17.3692C40 17.2725 39.9672 17.254 39.8853 17.2799C39.8622 17.2872 39.8383 17.293 39.8144 17.2963C39.6936 17.3131 39.655 17.2863 39.6418 17.1648C39.6368 17.1191 39.6106 17.0936 39.5886 17.0589C39.4976 16.9158 39.3049 16.8657 39.2563 16.6845C39.245 16.6422 39.2068 16.6458 39.1703 16.6635C39.0934 16.7007 39.0466 16.7638 39.0178 16.8411C38.9825 16.9357 38.9518 17.032 38.9164 17.1266C38.8992 17.1728 38.8771 17.2258 38.8385 17.1374C38.8276 17.1124 38.8087 17.0917 38.7827 17.1101C38.6866 17.1783 38.5577 17.2112 38.497 17.3143C38.4444 17.4035 38.3924 17.3958 38.312 17.3789C38.169 17.3488 38.0937 17.4125 38.0842 17.559C38.0814 17.6019 38.0819 17.6451 38.0823 17.6881L38.0824 17.6951C38.0837 17.8146 38.0151 17.9084 37.97 18.0402C37.9147 17.8309 37.9069 17.6437 37.8783 17.4561C37.8131 17.5744 37.7279 17.6918 37.7189 17.8149C37.7066 17.9818 37.6207 18.0218 37.4886 18.0477C37.4412 18.057 37.4156 18.0566 37.4072 18.0057C37.3947 17.9301 37.3812 17.8547 37.3708 17.7789C37.3603 17.7028 37.3528 17.6261 37.3135 17.5579C37.3037 17.541 37.2939 17.5175 37.2678 17.5255C37.2477 17.5317 37.2515 17.5539 37.2477 17.5701C37.2285 17.6514 37.2115 17.7333 37.1897 17.8139C37.1812 17.8454 37.1771 17.8972 37.1386 17.8948C37.09 17.8917 37.0854 17.8395 37.0819 17.7998L37.0817 17.7967C37.0771 17.7448 37.0825 17.6921 37.0801 17.6399C37.0788 17.6112 37.0929 17.5764 37.0516 17.5514C37.0124 17.6862 36.8876 17.7736 36.8691 17.9199C36.8645 17.9569 36.8269 17.9904 36.8024 18.0239C36.7608 18.081 36.7133 18.0878 36.6501 18.0514C36.5563 17.9973 36.4682 17.9358 36.3824 17.8704C36.2386 17.7607 36.0997 17.6443 35.9385 17.5596C35.8287 17.5019 35.7142 17.467 35.5884 17.4789C35.5065 17.4867 35.4318 17.515 35.3684 17.5656C35.3127 17.6102 35.3571 17.6699 35.3562 17.7228C35.3549 17.8007 35.2979 17.8356 35.238 17.8503C35.1721 17.8664 35.1654 17.8016 35.1505 17.7567C35.1225 17.672 35.1471 17.5605 35.0299 17.5208C35.0254 17.5193 35.0263 17.4963 35.0277 17.4837C35.0418 17.3618 34.98 17.2673 34.9181 17.1476C34.9142 17.2066 34.9246 17.2403 34.9012 17.2731C34.8406 17.3582 34.7847 17.4466 34.7251 17.5323C34.7077 17.5573 34.6879 17.5911 34.6525 17.5826C34.6146 17.5734 34.621 17.5328 34.6172 17.5034C34.5801 17.2181 34.5932 16.9283 34.4976 16.6477C34.4411 16.4818 34.4595 16.2954 34.4473 16.1179C34.4344 15.93 34.4256 15.7405 34.353 15.5445C34.2937 15.6546 34.3036 15.7563 34.3054 15.8555C34.3131 16.2811 34.3203 16.7067 34.3332 17.1322C34.3441 17.4907 34.3133 17.835 34.0479 18.1104C33.9734 18.1878 33.9237 18.2966 33.7841 18.2905C33.7281 18.288 33.7013 18.2807 33.6864 18.2293C33.6565 18.1255 33.6222 18.0229 33.595 17.9185C33.4682 17.4321 33.4107 16.9319 33.3026 16.4418C33.2861 16.3673 33.2835 16.2865 33.2309 16.21C33.1893 16.3905 33.2188 16.5563 33.2419 16.7216C33.2799 16.994 33.244 17.2736 33.3238 17.5424C33.3382 17.5907 33.3404 17.6501 33.2995 17.6976C33.2106 17.6239 33.2045 17.528 33.1982 17.4305L33.198 17.4277C33.1874 17.2614 33.2048 17.0914 33.1398 16.9318C33.1256 16.8969 33.1077 16.8454 33.0689 16.8513C33.0234 16.8582 33.0133 16.9163 33.0204 16.9544C33.0448 17.0873 33.0127 17.208 32.9615 17.328C32.9498 17.3554 32.9523 17.3897 32.9513 17.4209C32.9487 17.4979 32.8281 17.6304 32.7526 17.6368C32.7432 17.6376 32.7297 17.6366 32.7246 17.6308C32.6474 17.542 32.5197 17.4944 32.5076 17.3521C32.5027 17.2937 32.4825 17.2366 32.4696 17.1789C32.4374 17.0347 32.4344 16.884 32.3763 16.7451C32.3664 16.9409 32.3923 17.1365 32.3633 17.3304C32.3555 17.3828 32.3648 17.4238 32.3891 17.4686C32.4459 17.5733 32.4862 17.6846 32.4975 17.8045C32.4999 17.8297 32.5157 17.8639 32.4761 17.8747C32.4473 17.8826 32.4193 17.8691 32.4005 17.8486C32.3849 17.8315 32.367 17.8061 32.3683 17.7855C32.3785 17.6284 32.3194 17.4944 32.2455 17.3614C32.2216 17.3185 32.224 17.2602 32.2168 17.2085C32.1988 17.0808 32.2146 16.9494 32.1796 16.8238C32.1642 16.7688 32.171 16.7231 32.2016 16.676C32.234 16.626 32.259 16.5713 32.2506 16.5091L32.2504 16.5076C32.2472 16.4847 32.2435 16.4566 32.2172 16.448C32.1902 16.4392 32.1728 16.4618 32.1569 16.479C32.1054 16.5344 32.0967 16.6052 32.1012 16.6749C32.1236 17.0247 32.0227 17.3686 32.0527 17.719C32.0565 17.7638 32.0463 17.8389 31.9943 17.8355C31.9425 17.832 31.9476 17.765 31.9513 17.7178L31.9517 17.7123C31.9584 17.6246 31.9694 17.5371 31.9072 17.4625C31.846 17.389 31.8345 17.3017 31.8241 17.2095C31.8036 17.0277 31.7891 16.844 31.7371 16.6542C31.6926 16.7549 31.7329 16.8568 31.6825 16.9391C31.6321 17.0214 31.604 17.1094 31.5922 17.2038C31.5919 17.2061 31.5916 17.2084 31.5913 17.2107C31.6073 17.2984 31.6221 17.3948 31.6287 17.4255C31.6298 17.424 31.6309 17.4225 31.6319 17.4209C31.6329 17.4398 31.6316 17.4391 31.6287 17.4255C31.6076 17.4545 31.5865 17.4688 31.5654 17.4731C31.5607 17.55 31.5592 17.627 31.5631 17.7044C31.565 17.7432 31.5649 17.7879 31.5147 17.7944C31.4612 17.8014 31.4443 17.7591 31.4357 17.7156C31.4325 17.6989 31.4349 17.681 31.4355 17.6637C31.4381 17.5851 31.4461 17.5074 31.4581 17.4305C31.3782 17.3669 31.3 17.2703 31.226 17.3973C31.2198 17.3255 31.0964 17.2176 31.1111 17.1875C31.2932 16.8142 31.5951 16.5108 31.72 16.1143C31.8799 15.6061 31.9722 15.0872 31.9925 14.554C31.9986 14.3946 32.0458 14.2363 32.027 14.0753C31.9978 13.8252 31.9859 13.5748 31.9922 13.3232C31.9937 13.2642 31.987 13.2047 31.9797 13.1459C31.9004 12.5135 31.6878 11.9262 31.43 11.3448C30.9235 10.2026 30.1047 9.34386 29.1022 8.64059C28.737 8.38438 28.3353 8.18978 27.9396 7.98623C27.8807 7.95588 27.853 7.93136 27.8936 7.8621C27.9359 7.79004 27.9599 7.70664 27.9627 7.62286C27.9651 7.55501 27.9925 7.51529 28.0471 7.4801C28.2005 7.38137 28.2164 7.29152 28.1146 7.13559C28.0602 7.05221 27.9899 6.98551 27.9011 6.94074C27.7829 6.88121 27.6683 6.8782 27.5605 6.96716C27.5258 6.9958 27.4895 7.03697 27.4444 7.0316C27.3407 7.01923 27.2982 7.09309 27.2448 7.15556C27.2177 7.18728 27.1917 7.22061 27.1607 7.24821C27.1155 7.28857 27.0499 7.33319 27.0047 7.28765C26.9688 7.25146 27.0274 7.19617 27.0589 7.15619C27.1374 7.05669 27.1381 6.96118 27.0582 6.86316C26.9997 6.79146 26.9217 6.74596 26.8411 6.7035C26.7906 6.67688 26.749 6.67417 26.6986 6.71082C26.6332 6.75838 26.5541 6.79698 26.4743 6.75978C26.373 6.71254 26.3104 6.75804 26.2494 6.82715C26.2125 6.86892 26.1763 6.91134 26.1382 6.952C26.0218 7.07637 26.007 7.07787 25.8542 7.01684C25.8054 6.99736 25.7945 6.97633 25.8278 6.93382C25.8793 6.86802 25.9276 6.79957 25.9802 6.73463C27.1281 5.31689 28.398 4.02034 29.8019 2.85714C29.9252 2.755 30.0503 2.65529 30.1609 2.53837C30.2864 2.40564 30.324 2.25186 30.2857 2.07498C30.2685 1.99573 30.2379 1.92252 30.2037 1.84977C29.8633 1.12607 29.2531 0.717887 28.5405 0.446425C28.1462 0.296246 27.8935 0.41346 27.6952 0.78776C27.5919 0.982665 27.4729 1.16588 27.3403 1.34124C27.0818 1.68321 26.8111 2.01531 26.5354 2.34328C25.912 3.08479 25.2328 3.7762 24.6023 4.51142C24.4139 4.73102 24.2034 4.92967 23.9819 5.11608C23.938 5.15301 23.9048 5.1621 23.8449 5.13797C23.6201 5.04727 23.3831 5.01485 23.1411 5.01965C23.081 5.02084 23.0253 5.04209 22.9718 5.06754C22.8236 5.13815 22.8039 5.19597 22.8815 5.33872C22.9347 5.43666 22.9931 5.53174 23.0459 5.62994C23.0627 5.66126 23.0947 5.70148 23.0555 5.73419C22.9271 5.84143 22.8284 5.98036 22.6902 6.07665C22.6075 6.13428 22.5307 6.13792 22.4614 6.05245C22.4238 6.00615 22.3787 5.99924 22.3222 6.02644C22.2056 6.08265 22.1542 6.05403 22.1532 5.923C22.1525 5.81981 22.1232 5.74583 22.0359 5.68458C21.928 5.60883 21.922 5.55357 21.9913 5.43491C22.0296 5.3693 22.0585 5.30169 22.0414 5.22671C22.002 5.05323 22.0376 4.88798 22.081 4.72132C22.1081 4.61728 22.1397 4.51086 22.1125 4.40188C22.0973 4.3409 22.114 4.30074 22.166 4.27084C22.2186 4.24059 22.2287 4.19931 22.2154 4.13873C22.191 4.02831 22.2112 3.91768 22.2258 3.80631C22.2373 3.71861 22.2742 3.67026 22.3545 3.63856C22.4272 3.60986 22.5262 3.57555 22.517 3.48555C22.5089 3.40653 22.4105 3.38367 22.338 3.36224C22.1284 3.30029 21.9162 3.24753 21.7091 3.17631C21.4987 3.10394 21.284 3.10546 21.0734 3.17037C20.7184 3.27983 20.3724 3.41549 20.0282 3.55533C19.9479 3.58795 19.871 3.63084 19.8086 3.69349C19.7276 3.77473 19.7392 3.83979 19.8409 3.8871C19.9613 3.9431 20.0816 4.17553 20.0268 4.296C19.9375 4.49239 20.0266 4.6728 20.045 4.85972C20.0486 4.89603 20.0828 4.90696 20.1095 4.92227C20.2221 4.9867 20.311 5.19873 20.2781 5.33802C20.1212 5.14447 19.9375 5.18649 19.7497 5.27202C19.7118 5.28927 19.6752 5.3098 19.6395 5.33125C19.6078 5.35032 19.5796 5.35955 19.5432 5.338C19.4188 5.26432 19.291 5.2804 19.1616 5.32691C18.8529 5.4379 18.5627 5.58658 18.2862 5.76206L18.2752 5.76904C18.1517 5.84754 18.0305 5.92455 17.8759 5.92285C17.8468 5.92253 17.8128 5.93581 17.7891 5.95361C17.7012 6.0196 17.5997 6.04256 17.4952 6.04567C17.2229 6.05378 17.0087 6.16832 16.8155 6.36024C16.507 6.66679 16.1722 6.94643 15.8834 7.27387C15.8188 7.34713 15.7422 7.41581 15.6357 7.41145C15.518 7.40662 15.4016 7.41566 15.2848 7.42472L15.2718 7.42573C15.2233 7.42949 15.175 7.42608 15.1285 7.40709C15.0191 7.3625 15.0016 7.335 15.0533 7.22796C15.1309 7.0676 15.1179 6.9116 15.058 6.75171C15.0251 6.66374 14.9959 6.57427 14.968 6.48454C14.9561 6.44626 14.945 6.40544 14.9699 6.36144C14.9872 6.3686 15.0029 6.37527 15.0187 6.38149C15.247 6.47124 15.3943 6.36216 15.3706 6.12036C15.3679 6.0929 15.3597 6.06718 15.3746 6.03927C15.4189 5.95641 15.4621 5.87288 15.5028 5.78823C15.5314 5.72907 15.5767 5.70168 15.6402 5.69129C15.7708 5.66991 15.7974 5.62619 15.7607 5.49949C15.7491 5.45951 15.732 5.42088 15.7145 5.38294C15.6729 5.29239 15.6684 5.20233 15.7085 5.10969C15.7237 5.07479 15.7433 5.03633 15.7414 5.00058C15.7365 4.91348 15.7692 4.90196 15.8446 4.92508C15.9049 4.94358 15.9696 4.94639 15.9538 4.84736C15.9256 4.67007 15.8781 4.49982 15.7714 4.35169C15.6754 4.21839 15.6853 4.02522 15.7946 3.89853C15.8128 3.87748 15.8322 3.85694 15.847 3.83362C15.905 3.74265 15.8898 3.68779 15.7916 3.64334C15.6944 3.59935 15.5903 3.59107 15.4854 3.59507C15.0089 3.61329 14.5668 3.762 14.14 3.96226C13.9171 4.06685 13.7073 4.20034 13.4661 4.26408C13.4429 4.27022 13.4204 4.28119 13.3993 4.29303C13.3414 4.32555 13.2786 4.35671 13.2849 4.43869C13.2909 4.51584 13.3542 4.53704 13.4127 4.55914C13.4582 4.57627 13.5058 4.58727 13.5515 4.60381C13.5803 4.61424 13.6142 4.62334 13.6215 4.65965C13.6454 4.77863 13.7172 4.87547 13.7665 4.9827C13.8879 5.24683 13.6098 5.65521 13.3203 5.61786C13.1973 5.60199 13.1237 5.63829 13.0479 5.7167C12.9924 5.77422 12.9321 5.82736 12.8725 5.88077C12.2821 6.40936 11.7614 6.9941 11.4008 7.70957C11.3029 7.90379 11.2217 8.10041 11.2011 8.32137C11.1927 8.41174 11.1476 8.51117 11.0718 8.55886C10.9991 8.60459 10.9502 8.65875 10.9115 8.72884C10.8357 8.86604 10.7588 9.00279 10.6871 9.14218C10.5224 9.46241 10.3461 9.77211 10.0813 10.0252C9.92777 10.172 9.91912 10.3922 10.0311 10.5845C10.0806 10.6695 10.1514 10.7379 10.21 10.8155C10.3437 10.9927 10.4965 11.1629 10.506 11.4021C10.5132 11.584 10.5377 11.7631 10.57 11.9417C10.5776 11.9833 10.5742 12.0246 10.5661 12.0664C10.5528 12.135 10.5218 12.1726 10.4458 12.1866C10.2882 12.2156 10.1379 12.271 9.99999 12.3556L9.99854 12.3565C9.96693 12.3759 9.93714 12.3942 9.932 12.4403C9.90999 12.6379 9.87795 12.8344 9.8913 13.0345C9.89461 13.0842 9.90264 13.1302 9.93184 13.1725C10.0517 13.3463 10.0471 13.3929 9.88872 13.5309C9.7379 13.6623 9.61417 13.8219 9.63409 14.0237C9.65559 14.2415 9.56 14.4008 9.45961 14.568L9.45153 14.5815C9.39789 14.6709 9.35378 14.7661 9.30562 14.8589C9.27984 14.9085 9.25374 14.9582 9.21254 14.9969C9.15148 15.0541 9.01862 15.0377 9.00154 14.9666C8.95113 14.7566 8.93155 14.5504 9.11873 14.3869C9.15791 14.3526 9.19139 14.3119 9.22782 14.2745C9.32585 14.1738 9.3695 14.0561 9.35582 13.9132C9.34655 13.8163 9.35157 13.718 9.35184 13.6203C9.35361 12.9675 9.35931 12.3142 9.24036 11.669C9.21671 11.5407 9.20769 11.4288 9.28626 11.3156C9.32046 11.2663 9.3324 11.1995 9.34681 11.1388C9.3766 11.0134 9.39117 10.8835 9.43029 10.7614C9.49716 10.5526 9.49429 10.3515 9.41235 10.1486C9.34375 9.97872 9.33798 9.80287 9.37544 9.62429C9.40719 9.47296 9.39693 9.32636 9.32275 9.18715C9.26533 9.07939 9.24985 8.96422 9.25919 8.84247C9.26768 8.73196 9.28412 8.6191 9.23309 8.51269C9.22202 8.48962 9.23723 8.47546 9.24677 8.45664C9.3247 8.30297 9.45919 8.20906 9.59433 8.1147L9.60299 8.10865C9.74031 8.01273 9.88949 7.95471 10.0578 7.94626C10.1447 7.94189 10.2311 7.92696 10.3113 7.89164C10.6109 7.75974 10.8918 7.60563 11.0976 7.33433C11.1908 7.21148 11.244 7.08839 11.2537 6.93571C11.2734 6.6251 11.2439 6.31489 11.2577 6.00427C11.2733 5.65243 11.2948 5.30063 11.2664 4.94758C11.248 4.71715 11.1645 4.54534 10.9346 4.4679C10.8987 4.45582 10.8663 4.43385 10.8317 4.41766C10.787 4.39676 10.7669 4.36585 10.7617 4.31311C10.7301 3.99166 10.5783 3.73665 10.3408 3.52104C10.213 3.405 10.0771 3.36429 9.91352 3.39011C9.82437 3.40419 9.73546 3.42013 9.64599 3.43173C9.49059 3.45188 9.36265 3.5003 9.35768 3.68974ZM6.26446 10.6518C6.31871 10.723 6.34299 10.7973 6.32707 10.8854C6.34432 10.9696 6.31203 11.0375 6.26757 11.1089C6.07951 11.4108 6.00492 11.7514 5.95036 12.0972C5.86806 12.6188 5.85153 13.1459 5.83198 13.6722C5.82311 13.9111 5.78448 14.1432 5.73657 14.3755C5.71051 14.5018 5.7395 14.5544 5.85595 14.606C5.88827 14.6203 5.92206 14.6314 5.95572 14.6425L5.96359 14.6451C6.11623 14.6956 6.12199 14.7005 6.11532 14.8578C6.11179 14.9412 6.09957 15.0243 6.0912 15.1075C6.07543 15.2643 6.11184 15.3999 6.22302 15.5203C6.34467 15.6522 6.34015 15.6985 6.23352 15.8376C6.19644 15.886 6.16498 15.9356 6.1747 15.9995C6.18396 16.0604 6.14091 16.0958 6.11122 16.1369C5.97056 16.3315 5.97305 16.3976 6.1311 16.5747C6.17281 16.6214 6.21633 16.6668 6.24302 16.7249C6.29946 16.8477 6.26265 16.9125 6.13907 16.9581C5.97974 17.0169 5.80824 16.9784 5.64536 17.0417C5.58024 17.067 5.47259 17.0305 5.38699 17.0654C5.36574 17.0741 5.32984 17.0784 5.33205 17.1059C5.34254 17.2368 5.28352 17.1806 5.22528 17.1517C5.16141 17.12 5.11487 17.154 5.11804 17.2257C5.1191 17.2497 5.12794 17.2733 5.13326 17.297C5.14666 17.3568 5.13939 17.3902 5.0627 17.3732C4.99211 17.3576 4.93841 17.3297 4.8926 17.2698C4.79637 17.144 4.70687 17.0173 4.68551 16.8545C4.67532 16.7769 4.67213 16.6966 4.71235 16.6296C4.86831 16.37 4.84853 16.0957 4.78495 15.8187C4.75304 15.6797 4.70965 15.5432 4.66776 15.4067C4.63194 15.29 4.5945 15.174 4.58172 15.0518C4.57033 14.9428 4.53577 14.8404 4.48575 14.7441C4.36178 14.5055 4.26189 14.2571 4.17606 14.0024C4.10891 13.803 4.01939 13.6158 3.87569 13.4572C3.78178 13.3535 3.74841 13.2285 3.7757 13.0876C3.78416 13.0439 3.79421 13.0115 3.84534 13.0203C3.93234 13.0352 3.96113 12.9755 3.98621 12.9118C4.0201 12.8257 4.004 12.7381 3.98133 12.6543C3.93123 12.4692 3.88563 12.2831 3.85192 12.0944C3.82353 11.9353 3.73231 11.8143 3.62244 11.7045C3.57165 11.6538 3.52923 11.6036 3.54906 11.5226C3.56014 11.4773 3.54156 11.432 3.51876 11.3925C3.49093 11.3444 3.49498 11.2998 3.5022 11.2448C3.5187 11.1193 3.56128 11.0313 3.6921 10.9907C3.77915 10.9637 3.81295 10.8913 3.80203 10.7935C3.77729 10.5718 3.75699 10.3494 3.74268 10.1268C3.73842 10.0605 3.70595 9.97723 3.80019 9.93455C3.8894 9.89415 3.95575 9.93661 4.01655 9.99177C4.10521 10.0722 4.19325 10.1469 4.3227 10.1522C4.37046 10.1542 4.40933 10.1936 4.4436 10.2284L4.44413 10.2289C4.5164 10.3022 4.60318 10.337 4.7055 10.3402C4.85596 10.3449 4.99758 10.3743 5.13432 10.449C5.27109 10.5236 5.42567 10.4976 5.57359 10.4715C5.73471 10.443 5.88919 10.3888 6.04393 10.3373C6.11304 10.3143 6.15077 10.314 6.1629 10.402C6.17526 10.4917 6.20931 10.5793 6.26446 10.6518ZM1.34814 15.9667C1.37198 15.8795 1.38246 15.7898 1.33225 15.695C1.28803 15.8176 1.2494 15.9324 1.20522 16.0449C1.16043 16.159 1.09881 16.2644 1.02008 16.3586C0.997717 16.3853 0.977496 16.4323 0.930685 16.3885C0.898587 16.3585 0.832233 16.3402 0.878032 16.277C0.940783 16.1904 0.910072 16.109 0.880591 16.0213C0.822785 15.8492 0.770968 15.6753 0.812906 15.4892C0.828052 15.422 0.862012 15.3712 0.909196 15.3209C1.08199 15.1369 1.29871 15.0133 1.50214 14.871C1.66626 14.7563 1.85306 14.7825 1.92183 14.9711C1.9378 15.0149 1.97042 15.0611 2.00842 15.0866C2.11662 15.1592 2.15057 15.2685 2.15214 15.3837C2.15699 15.7398 2.30495 15.9845 2.64907 16.1093C2.81343 16.1689 2.92022 16.312 3.02175 16.4504C3.0683 16.5139 3.12459 16.5585 3.19523 16.5939C3.40591 16.6996 3.58086 16.8451 3.65724 17.0791C3.70186 17.2157 3.69405 17.3619 3.7119 17.5034C3.72052 17.5718 3.63375 17.6271 3.65399 17.7089C3.65652 17.7192 3.63487 17.7228 3.61975 17.7212C3.5567 17.7143 3.45056 17.5583 3.47046 17.4976C3.52057 17.3449 3.52863 17.1861 3.55269 17.0128C3.4393 17.0737 3.38068 17.1654 3.30796 17.2426C3.27871 17.2736 3.26283 17.3569 3.1872 17.2799C3.15961 17.2519 3.11721 17.301 3.10025 17.3335C3.0597 17.4112 3.01007 17.4064 2.9483 17.3624C2.89726 17.326 2.84365 17.294 2.76466 17.3181C2.81852 17.1087 3.01158 16.9713 2.98221 16.7312C2.86012 16.86 2.7881 17.0038 2.69294 17.13C2.67475 17.1542 2.66415 17.1878 2.62896 17.1946C2.53806 17.2122 2.50247 17.17 2.53013 17.0796C2.53887 17.0511 2.56455 17.0272 2.55597 16.9929C2.4438 17.0286 2.4438 17.0286 2.40104 16.8878C2.35314 16.9558 2.29337 17.0138 2.26737 17.0844C2.23339 17.1766 2.15435 17.2108 2.08889 17.2611C2.03484 17.3026 1.99765 17.2566 1.98027 17.2076C1.95702 17.1422 1.94332 17.0734 1.92241 17.0071C1.91344 16.9786 1.90541 16.9388 1.86758 16.9404C1.83103 16.9419 1.82134 16.979 1.81565 17.01C1.80751 17.0543 1.80302 17.0992 1.79694 17.1441C1.71812 17.1406 1.72694 17.0878 1.73524 17.0381L1.73571 17.0353C1.75974 16.8909 1.78831 16.7473 1.80967 16.6026C1.82809 16.4778 1.82059 16.3549 1.74749 16.2141C1.69794 16.475 1.59354 16.6926 1.56868 16.9359C1.50235 16.9183 1.49615 16.8674 1.48603 16.8212C1.47634 16.777 1.47237 16.7316 1.46328 16.6872C1.4523 16.6336 1.42904 16.6086 1.38377 16.6617C1.3576 16.6924 1.32411 16.726 1.28831 16.6969C1.2546 16.6696 1.281 16.6251 1.29539 16.5906C1.31812 16.536 1.3457 16.4835 1.36798 16.4288C1.39272 16.368 1.38481 16.3191 1.30483 16.3308C1.22408 16.3425 1.23707 16.3041 1.25398 16.2546C1.28664 16.159 1.32154 16.064 1.34814 15.9667ZM28.2772 14.222C28.4615 14.2118 28.6452 14.2147 28.8113 14.2159C29.2351 14.2373 29.6406 14.2676 30.0476 14.2527C30.099 14.2508 30.1519 14.2576 30.2023 14.2686C30.3381 14.2982 30.3964 14.3669 30.4092 14.5065C30.4239 14.6681 30.4028 14.8272 30.3679 14.9843C30.3015 15.2833 30.2524 15.5874 30.1245 15.8694C30.0656 15.9994 30.0391 16.0101 29.898 15.9781C29.8291 15.9625 29.766 15.9339 29.7075 15.896C29.1994 15.567 28.6972 15.2297 28.2355 14.8354C28.1851 14.7924 28.1648 14.7526 28.1742 14.685C28.1892 14.5775 28.1681 14.4694 28.1606 14.3615C28.155 14.2797 28.1745 14.2277 28.2772 14.222ZM28.8347 13.6743L28.8345 13.6874C28.6402 13.6874 28.4459 13.6853 28.2516 13.6887C28.193 13.6897 28.1606 13.6703 28.1472 13.6136C28.1303 13.5426 28.1083 13.4728 28.0937 13.4013C28.0555 13.216 28.1091 13.072 28.2685 12.9581C28.5457 12.7599 28.832 12.5756 29.114 12.3846C29.2894 12.2658 29.4619 12.1425 29.6378 12.0244C29.9028 11.8464 30.0587 11.8895 30.1587 12.1942C30.2824 12.5711 30.3931 12.9539 30.3672 13.3595C30.3576 13.5117 30.3239 13.5512 30.1744 13.5846C30.024 13.6182 29.8701 13.6065 29.7181 13.6194C29.4242 13.6445 29.1293 13.6567 28.8347 13.6743ZM27.4663 15.6714C27.4102 15.5732 27.3693 15.4708 27.3676 15.3557C27.3655 15.0889 27.4145 15.0543 27.6551 15.1519C27.877 15.2419 28.0714 15.3768 28.247 15.5364C28.5846 15.8433 28.9443 16.1234 29.2918 16.4183C29.3605 16.4766 29.4282 16.5382 29.4864 16.6068C29.6134 16.7565 29.6325 16.904 29.5268 17.0689C29.384 17.2916 29.2227 17.5026 29.0432 17.6971C28.934 17.8154 28.8358 17.8085 28.7189 17.6952C28.651 17.6292 28.5984 17.551 28.548 17.4715C28.1731 16.8802 27.8134 16.2796 27.4663 15.6714ZM29.4541 10.9313C29.4978 11.0071 29.535 11.0858 29.5372 11.176C29.5384 11.2792 29.4745 11.3454 29.4005 11.3987C29.0755 11.6327 28.7784 11.9018 28.4625 12.1474C28.383 12.2092 28.3089 12.2782 28.2329 12.3445C28.183 12.3881 28.1328 12.4305 28.073 12.4605C28.0103 12.4919 27.9717 12.5019 27.9564 12.4071C27.9218 12.1932 27.7835 12.0537 27.5963 11.9631C27.5284 11.9302 27.5248 11.8989 27.5535 11.8361C27.8048 11.2856 28.1232 10.7744 28.4567 10.272C28.5118 10.1891 28.6239 10.1607 28.7273 10.1986C28.7628 10.2115 28.7983 10.2293 28.828 10.2523C29.0744 10.4434 29.2962 10.6578 29.4541 10.9313ZM15.9029 8.78426C15.9477 8.77998 15.9924 8.77371 16.0191 8.77051C16.2097 8.77791 16.3721 8.82299 16.5282 8.89522C16.5737 8.91626 16.5857 8.94666 16.5806 8.99458C16.5276 9.49316 16.4895 9.99343 16.4144 10.4895C16.3768 10.7378 16.2477 10.9464 16.109 11.1462C16.0748 11.1956 15.9939 11.226 15.9231 11.2323C15.8853 11.2357 15.8079 11.2558 15.8573 11.1641C15.8596 11.1599 15.8546 11.1506 15.8513 11.1447C15.6794 10.8402 15.6717 10.4899 15.58 10.163C15.5631 10.1028 15.5477 10.042 15.5301 9.98198C15.5006 9.88162 15.5043 9.78363 15.5406 9.68503C15.5959 9.53465 15.6223 9.3757 15.7338 9.24516C15.8113 9.15437 15.829 9.02497 15.8037 8.90638C15.7828 8.80818 15.8284 8.79139 15.9029 8.78426ZM26.9161 17.8898C26.9208 17.6912 26.918 17.4924 26.918 17.2937C26.9411 16.9591 26.9417 16.6241 26.9882 16.2917C26.9938 16.252 26.9845 16.1959 27.0252 16.1802C27.0727 16.1619 27.1047 16.2128 27.1365 16.2425C27.2058 16.3073 27.2511 16.3895 27.2965 16.4718L27.302 16.4818C27.578 16.9816 27.8545 17.4811 28.1322 17.9799C28.197 18.0962 28.2561 18.2134 28.2724 18.3483C28.2781 18.3959 28.2691 18.4238 28.2201 18.4451C28.0947 18.4995 28.0014 18.6198 27.8514 18.6267C27.8379 18.6273 27.8242 18.6468 27.8126 18.6594C27.7278 18.7512 27.6946 18.7469 27.6331 18.6357C27.5544 18.4934 27.5539 18.4923 27.4098 18.5564C27.3697 18.5742 27.3477 18.5751 27.3355 18.525C27.2818 18.3043 27.1411 18.1433 26.9723 18.0031C26.9356 17.9727 26.9149 17.9432 26.9161 17.8898ZM26.9434 10.9411L26.9572 10.9406C26.9811 10.5895 27.0058 10.2384 27.0284 9.88723C27.0407 9.69725 27.1377 9.54489 27.2408 9.39565C27.2863 9.3298 27.3594 9.33973 27.4223 9.35572C27.5993 9.4007 27.7444 9.49897 27.8572 9.64336C27.9217 9.72591 27.902 9.8173 27.8689 9.90223C27.7578 10.1875 27.6444 10.4719 27.5266 10.7544C27.4288 10.9887 27.3234 11.2198 27.2217 11.4525C27.1894 11.5264 27.1547 11.5982 27.0836 11.6439C27.0214 11.6838 26.9764 11.6861 26.9577 11.5979C26.9482 11.5529 26.9436 11.5086 26.9435 11.4634C26.9432 11.2893 26.9434 11.1152 26.9434 10.9411ZM18.9278 7.13024C18.9224 7.16099 18.9229 7.19279 18.9187 7.25252C18.909 7.33101 18.9234 7.4338 18.9766 7.52783C19.052 7.66108 19.056 7.79921 19.0126 7.94213C18.9894 8.0188 18.9653 8.09523 18.9426 8.17204C18.8902 8.34865 18.7784 8.38334 18.6263 8.26835C18.291 8.01496 17.9316 7.80641 17.5289 7.68159C17.4512 7.65752 17.4578 7.62572 17.4937 7.57326C17.5589 7.47813 17.6333 7.39842 17.7608 7.4009L17.7628 7.40094C17.7727 7.40116 17.785 7.40143 17.7911 7.39598C17.9102 7.28984 18.0819 7.28573 18.2016 7.18462C18.3 7.10149 18.4089 7.06341 18.5358 7.06264C18.6364 7.06203 18.7378 7.06033 18.8372 7.04667C18.912 7.03639 18.9415 7.05247 18.9278 7.13024ZM12.2 14.009C12.1435 13.8601 12.1306 13.7046 12.1236 13.5681C12.1312 13.3027 12.1739 13.0638 12.2432 12.829C12.2701 12.738 12.3321 12.7006 12.4201 12.6971C12.5064 12.6938 12.5846 12.7242 12.6564 12.7673C12.8736 12.8975 13.0878 13.0326 13.3056 13.1616C13.369 13.1992 13.3736 13.2356 13.3369 13.2946C13.1118 13.6564 12.7961 13.9166 12.4228 14.108C12.292 14.175 12.2525 14.1475 12.2 14.009ZM21.4868 16.1801C21.41 16.0999 21.3538 16.0029 21.3049 15.8854C21.2498 16.0457 21.3488 16.1951 21.2882 16.3457C21.2365 16.3157 21.231 16.2673 21.2263 16.221C21.2185 16.1448 21.2164 16.068 21.2085 15.9918C21.1949 15.8604 21.1738 15.848 21.0519 15.9017C21.0313 15.8547 21.0443 15.8074 21.0493 15.7616C21.0543 15.7167 21.065 15.6724 21.0719 15.6277C21.1003 15.4422 21.1004 15.4422 21.2851 15.4241L21.2896 15.4236C21.3316 15.4195 21.3629 15.4275 21.393 15.4561C21.4585 15.5185 21.5286 15.5762 21.5913 15.6412C21.6412 15.6929 21.6869 15.7368 21.7684 15.7204C21.8214 15.7097 21.8454 15.7543 21.8671 15.7967C21.9576 15.9738 22.0256 16.1604 22.0996 16.3444C22.1764 16.5353 22.2557 16.7249 22.3755 16.8937C22.4186 16.9544 22.4043 17.023 22.3963 17.0858C22.3885 17.146 22.3539 17.1051 22.3329 17.0869C22.3135 17.0702 22.3071 17.0272 22.2728 17.0428C22.2393 17.0581 22.2492 17.0983 22.2515 17.1275C22.2595 17.2267 22.3117 17.3191 22.2974 17.4222C22.2938 17.4486 22.3065 17.4839 22.2732 17.4953C22.2331 17.509 22.2198 17.4731 22.2072 17.445C22.1691 17.3601 22.1358 17.2774 22.146 17.1773C22.1606 17.0341 22.1469 16.8904 22.0667 16.7637C22.0098 16.6738 21.9866 16.6747 21.9335 16.7631C21.9102 16.8018 21.8903 16.8426 21.8673 16.8815C21.8506 16.9097 21.8448 16.9517 21.7966 16.9445C21.7551 16.9383 21.7237 16.9148 21.7109 16.8766C21.6911 16.8175 21.6797 16.7555 21.6614 16.6958C21.6537 16.6708 21.649 16.635 21.6154 16.6338C21.5871 16.6328 21.5648 16.6548 21.5502 16.6802C21.5141 16.7423 21.5091 16.8116 21.5041 16.8811L21.504 16.8819C21.4984 16.9584 21.495 17.0359 21.4508 17.1027C21.4328 17.1298 21.4067 17.1486 21.373 17.1491C21.3324 17.1496 21.3394 17.1123 21.3295 17.0887C21.3173 17.0598 21.3084 17.029 21.2927 17.0023C21.2239 16.8848 21.2442 16.7756 21.3187 16.67C21.3808 16.5819 21.4449 16.4951 21.5044 16.4052C21.5558 16.3275 21.5581 16.2546 21.4868 16.1801ZM9.05058 4.77692C9.10392 4.70452 9.14485 4.62972 9.10487 4.52531C9.14622 4.55006 9.19884 4.56581 9.22687 4.60121C9.32333 4.723 9.43396 4.78553 9.59527 4.75057C9.65854 4.73685 9.7011 4.82829 9.64798 4.89526C9.57233 4.99062 9.59208 5.08746 9.59666 5.19036C9.60609 5.4028 9.60879 5.61553 9.61711 5.82803C9.61918 5.88086 9.60952 5.91745 9.56131 5.94996C9.46996 6.01156 9.41894 6.10486 9.41482 6.21451C9.41228 6.28189 9.37597 6.30902 9.32431 6.32114C9.27081 6.33369 9.25611 6.28327 9.23783 6.2477C9.21242 6.19826 9.19318 6.14564 9.16819 6.09596C9.10394 5.96823 9.00359 5.9312 8.87494 5.99001C8.83435 6.00857 8.79972 6.03991 8.75992 6.06066C8.71975 6.08161 8.68809 6.16499 8.64906 6.12682C8.59069 6.06975 8.52529 6.00185 8.53013 5.90331C8.53256 5.85381 8.56773 5.85168 8.6022 5.8464C8.69812 5.83171 8.79717 5.82782 8.88935 5.80051C9.06642 5.74804 9.07867 5.713 9.04696 5.56809C9.02122 5.45049 9.04594 5.33191 9.05131 5.21374C9.05652 5.09901 9.06925 4.98279 9.02806 4.87189C9.01299 4.83131 9.02979 4.80515 9.05058 4.77692ZM26.3982 12.0559C26.3952 12.0798 26.3874 12.103 26.3796 12.1364C26.311 12.0858 26.2844 12.0238 26.2683 11.9607C26.2147 11.7516 26.1081 11.5694 25.9985 11.3867C25.7841 11.0296 25.8001 10.9136 26.0942 10.6216C26.1756 10.5409 26.2645 10.4678 26.3493 10.3905C26.4122 10.3332 26.4494 10.3599 26.4664 10.4294C26.4787 10.4798 26.4861 10.5327 26.4864 10.5846C26.49 11.077 26.4607 11.5675 26.3982 12.0559ZM25.6399 15.7838C25.6705 15.695 25.698 15.6062 25.644 15.4874C25.5806 15.625 25.5267 15.7434 25.4716 15.8613C25.4206 15.9703 25.4126 15.9757 25.333 15.8908C25.0918 15.6335 25.0827 15.6665 25.3503 15.4473C25.527 15.3026 25.7287 15.1889 25.9173 15.0585C25.9582 15.0302 25.9798 15.0514 26.0043 15.0754L26.0057 15.0767C26.1597 15.2273 26.1123 15.6389 25.9294 15.7581C25.8781 15.7915 25.8717 15.7629 25.8664 15.7225C25.8536 15.6259 25.8425 15.529 25.8264 15.4329C25.8205 15.3973 25.8201 15.3566 25.7805 15.323C25.7752 15.5848 25.7317 15.8307 25.6068 16.0638C25.5738 15.9758 25.5737 15.9758 25.6399 15.7838ZM17.1036 10.5383C17.0501 10.5161 17.0915 10.4572 17.078 10.4246C17.0978 10.1813 17.1671 9.95886 17.2441 9.73827C17.2717 9.65943 17.3051 9.58194 17.3244 9.50107C17.3465 9.40783 17.3804 9.39656 17.4533 9.45748C17.5608 9.54735 17.6569 9.64583 17.7337 9.76403C17.7897 9.85011 17.7855 9.93235 17.7172 10.0024C17.5571 10.1663 17.3874 10.3207 17.2346 10.4922C17.2024 10.5283 17.1505 10.5578 17.1036 10.5383ZM30.6811 18.0826C30.7397 18.0283 30.7426 17.9233 30.8397 17.8758C30.8235 18.043 30.7753 18.1896 30.707 18.3297C30.5298 18.693 30.2373 18.9448 29.9056 19.1576C29.8883 19.1687 29.8681 19.1754 29.8487 19.1827L29.8458 19.1837C29.8136 19.1958 29.7761 19.2099 29.75 19.185C29.7173 19.1537 29.7528 19.1196 29.7669 19.0914C29.8349 18.9558 29.9307 18.8393 30.0447 18.7426C30.2791 18.5438 30.4563 18.2906 30.6811 18.0826ZM17.8696 16.3753C17.8896 16.2344 17.819 16.1287 17.7347 16.0156C17.6868 16.1365 17.7659 16.2495 17.7296 16.3705C17.6627 16.3467 17.6366 16.2924 17.6111 16.2393L17.6095 16.2359C17.5764 16.1671 17.551 16.094 17.4817 16.0498C17.4412 16.0241 17.4571 15.9901 17.4744 15.9584C17.5211 15.8735 17.6031 15.8501 17.6876 15.8573C17.7542 15.8631 17.8093 15.851 17.8653 15.82C17.9078 15.7964 17.9536 15.7808 18.0038 15.7807C18.0807 15.7805 18.1383 15.7964 18.1422 15.8924C18.1443 15.9436 18.1648 15.994 18.1766 16.0448C18.186 16.0855 18.1994 16.1259 18.2028 16.1671C18.2083 16.2348 18.2008 16.3044 18.1361 16.3421C18.0749 16.3777 18.0355 16.3231 17.9919 16.2803C17.965 16.351 17.9983 16.4094 18.0004 16.4691C18.0021 16.516 18.001 16.5712 17.9458 16.5781C17.8832 16.586 17.8682 16.5293 17.8635 16.4791C17.8604 16.445 17.8647 16.4096 17.8696 16.3753ZM13.7762 12.099C13.8886 12.0974 13.8368 12.2073 13.8589 12.2564C13.8619 12.4039 13.7982 12.5214 13.748 12.643C13.7326 12.6804 13.704 12.6753 13.68 12.659C13.5051 12.5405 13.3072 12.4608 13.1372 12.3339C13.0757 12.288 13.0717 12.2565 13.1492 12.2209C13.349 12.1293 13.5614 12.1019 13.7762 12.099ZM16.634 16.5396C16.6055 16.65 16.6238 16.7634 16.5802 16.8762C16.4786 16.7639 16.4499 16.6507 16.5034 16.5177C16.5366 16.4353 16.582 16.4046 16.67 16.4393C16.7928 16.4877 16.881 16.5703 16.9398 16.6869C16.9952 16.797 17.0227 16.9154 17.0438 17.0358C17.0507 17.0752 17.0538 17.1071 17.0058 17.1291C16.9425 17.1582 16.9694 17.2376 16.9336 17.2835C16.9197 17.3014 16.9313 17.3417 16.8986 17.3383C16.8562 17.3339 16.8211 17.3259 16.8098 17.2633C16.7835 17.1184 16.7676 16.9745 16.7718 16.8273C16.7751 16.7137 16.7636 16.6031 16.634 16.5396ZM23.8414 17.2744C23.8653 17.3001 23.8708 17.328 23.8696 17.3338C23.8556 17.4146 23.8637 17.4902 23.8141 17.5106C23.7649 17.5308 23.7314 17.4611 23.6972 17.4257L23.6917 17.42C23.6303 17.3565 23.5714 17.2956 23.5604 17.1922C23.5551 17.1419 23.5334 17.0108 23.4056 17.0762C23.4005 17.0788 23.3838 17.0708 23.3813 17.0643C23.3445 16.9669 23.267 16.8892 23.247 16.784C23.2409 16.7522 23.241 16.7159 23.2668 16.6969C23.304 16.6695 23.3203 16.7147 23.3404 16.7326C23.5247 16.897 23.6736 17.0945 23.8414 17.2744ZM24.9209 14.8871C25.0686 14.8535 25.2201 14.8358 25.3406 14.7905C25.4217 14.7798 25.4213 14.8095 25.4044 14.8494C25.3804 14.9055 25.3384 14.9465 25.2916 14.9831C25.1845 15.0665 25.0649 15.1292 24.9471 15.1952C24.8927 15.2258 24.8529 15.2149 24.8246 15.1664C24.7037 14.9599 24.6833 14.9411 24.9209 14.8871ZM26.214 16.246C26.2588 16.2657 26.2406 16.3266 26.2479 16.356C26.2412 16.4754 26.2035 16.574 26.1818 16.6761C26.1773 16.697 26.1719 16.7134 26.1414 16.7094C26.0564 16.6982 25.963 16.5376 26.003 16.4622C26.0306 16.4102 26.061 16.3585 26.0979 16.3131C26.1268 16.2774 26.1623 16.2233 26.214 16.246ZM13.6298 9.93703C13.618 9.88343 13.6804 9.89529 13.7079 9.88199C13.8359 9.87874 13.9827 10.0855 13.9395 10.2022C13.9184 10.259 13.8326 10.2797 13.7753 10.2386C13.673 10.1653 13.654 10.0475 13.6298 9.93703ZM24.4034 12.334C24.4325 12.243 24.5081 12.2131 24.5801 12.2027C24.6416 12.203 24.6831 12.2179 24.7155 12.2521C24.7368 12.2747 24.7596 12.3027 24.7504 12.3342C24.7402 12.3689 24.7037 12.3502 24.6789 12.3557C24.6086 12.3713 24.5373 12.3836 24.4682 12.4032C24.3962 12.4236 24.3867 12.3862 24.4034 12.334ZM15.5114 17.167C15.5243 17.1254 15.481 17.0594 15.5499 17.0395C15.6041 17.046 15.6457 17.0623 15.6472 17.1182C15.6484 17.1628 15.6453 17.2137 15.5812 17.2112C15.5519 17.21 15.4956 17.2178 15.5114 17.167Z" fill="#FBF9FF"/>
</g>
<defs>
<clipPath id="clip0_65_220">
<rect width="40" height="21.875" fill="white"/>
</clipPath>
</defs>
</svg>
