<svg width="83" height="45" viewBox="0 0 83 45" fill="none" xmlns="http://www.w3.org/2000/svg">
<g clip-path="url(#clip0_4_8)">
<path fill-rule="evenodd" clip-rule="evenodd" d="M19.2501 7.59032C19.2494 7.61588 19.2271 7.64088 19.1994 7.69802L19.1906 7.68474C18.7834 7.07014 18.3989 6.48981 18.4558 5.73701C18.462 5.65397 18.4396 5.56475 18.4134 5.48396C18.3309 5.22909 18.3821 5.02237 18.5972 4.85314C18.6988 4.77323 18.8049 4.66384 18.7495 4.52469C18.6959 4.39 18.553 4.34681 18.4141 4.32837C18.1463 4.29281 17.9245 4.41278 17.717 4.55595C17.1903 4.91934 16.6181 5.19574 16.0408 5.464C15.1774 5.86518 14.2732 6.1588 13.3847 6.49447C12.7068 6.75055 12.6371 7.00334 13.0285 7.6085C13.1669 7.82247 13.2962 8.03788 13.2805 8.3031C13.245 8.90082 13.3776 9.42 13.8815 9.80711C14.0716 9.95306 14.0791 10.1772 13.972 10.396C13.9091 10.5247 13.8233 10.6503 13.7976 10.7868C13.7692 10.9372 13.6928 11.0124 13.566 11.063C13.2998 11.169 13.1833 11.3663 13.2001 11.6528C13.2143 11.8942 13.1683 12.122 13.0347 12.3306C12.9894 12.4012 12.9609 12.4879 12.9447 12.5711C12.8771 12.9191 12.7021 13.2125 12.4946 13.49C12.3315 13.7081 12.1679 13.9259 12.0002 14.1405C11.5606 14.7032 11.4992 15.297 11.8519 15.9245C12.2055 16.5536 12.1426 17.2063 11.9727 17.8682C11.9334 18.0214 11.8444 18.0819 11.6941 18.0633C11.3612 18.0219 11.0283 17.9796 10.6954 17.938C10.6596 17.9335 10.6221 17.9308 10.603 17.8947C10.4592 17.6237 10.2421 17.3626 10.2804 17.0443C10.3121 16.7807 10.1998 16.631 10.0381 16.4745C9.91984 16.36 9.80778 16.2389 9.69531 16.1185C9.65187 16.0719 9.58742 16.0231 9.57997 15.9687C9.55113 15.7584 9.42211 15.6228 9.27604 15.4908C9.2084 15.4296 9.12798 15.3556 9.15624 15.2527C9.21612 15.0349 9.20944 14.8116 9.22481 14.5905C9.23371 14.4625 9.28479 14.4239 9.40924 14.415C9.77631 14.3889 9.80369 14.3462 9.74334 13.9763C9.72602 13.8702 9.70735 13.7643 9.69099 13.658C9.68101 13.5932 9.67273 13.5215 9.72008 13.4722C9.94283 13.2401 9.88788 12.9897 9.77766 12.7333C9.68095 12.5084 9.69532 12.3015 9.87179 12.1173C9.94218 12.0438 9.98787 11.9544 10.0108 11.8539C10.0609 11.6348 10.1876 11.5101 10.4186 11.476C10.5632 11.4547 10.7408 11.4166 10.7614 11.2347C10.7834 11.0418 10.6025 10.9835 10.47 10.9041C10.4274 10.8786 10.3796 10.8612 10.3329 10.8435C9.89616 10.6775 9.44743 10.5665 8.9796 10.537C8.50805 10.5073 8.03982 10.4657 7.60847 10.239C7.12178 9.98334 6.59298 9.96762 6.06105 9.99687C5.73729 10.0147 5.67632 10.0594 5.76629 10.464C5.77852 10.519 5.80474 10.5726 5.8327 10.6222C6.11269 11.1187 5.95638 11.5959 5.73485 12.0478C5.62907 12.2636 5.55451 12.4625 5.65449 12.6779C5.78299 12.9548 5.77576 13.2146 5.68416 13.5015C5.57185 13.8532 5.45453 13.9564 5.09412 13.886C4.73026 13.815 4.3672 13.8424 4.00473 13.8741C3.81464 13.8908 3.61381 13.9119 3.46862 14.0609C3.30174 14.2321 3.09895 14.3313 2.87031 14.374C2.62688 14.4194 2.45305 14.5753 2.32734 14.7601C2.09727 15.0984 1.7926 15.2051 1.4114 15.1411C1.02204 15.0759 0.629681 15.0664 0.236716 15.0543C0.077126 15.0493 0.00990325 15.0935 0.0105252 15.2724C0.0167319 17.0531 0.0165089 18.8339 0.0112158 20.6146C0.0106281 20.8121 0.101434 20.8697 0.271721 20.8602C0.33571 20.8567 0.400247 20.8486 0.462692 20.8344C0.590566 20.8054 0.660573 20.8526 0.701201 20.9785C0.749684 21.1288 0.800393 21.3122 0.943889 21.3715C1.2245 21.4876 1.13248 21.6582 1.06381 21.8439C1.00602 22.0002 0.944888 22.1532 0.802452 22.2536C0.759035 22.2842 0.743331 22.3175 0.734019 22.3742C0.669657 22.7662 0.633301 23.1659 0.493935 23.5407C0.374138 23.8629 0.230891 24.1762 0.0999154 24.4942C0.0619503 24.5864 0.0220721 24.6769 0.0133605 24.7805C-0.0303995 25.3008 0.020395 25.7961 0.361931 26.2224C0.401869 26.2722 0.426756 26.3339 0.463056 26.3871C0.504088 26.4472 0.50151 26.5048 0.474114 26.5696C0.354167 26.8533 0.247285 27.1432 0.114057 27.4204C0.0465729 27.5608 0.0120651 27.6947 0.0121337 27.8498C0.0143464 32.9723 0.0142944 38.0948 0.0142424 43.2173L0.0142269 45.2769C0.0142269 45.7824 0.014227 45.7825 0.508665 45.7825L81.7687 45.7825C81.8688 45.7825 81.9699 45.7733 82.0687 45.7843C82.2316 45.8024 82.286 45.7514 82.2857 45.5755C82.2801 42.294 82.2799 39.0125 82.2855 35.731C82.2858 35.5321 82.2182 35.4939 82.0497 35.5472C82.0022 35.5622 81.9531 35.5741 81.9038 35.5809C81.6553 35.6156 81.576 35.5604 81.5488 35.3104C81.5386 35.2165 81.4847 35.1639 81.4394 35.0925C81.2523 34.7982 80.8559 34.6951 80.7559 34.3225C80.7325 34.2353 80.654 34.2428 80.5789 34.2792C80.4207 34.3558 80.3245 34.4856 80.2652 34.6446C80.1926 34.8392 80.1294 35.0373 80.0567 35.2318C80.0211 35.3268 79.9757 35.436 79.8964 35.2542C79.8738 35.2026 79.8349 35.16 79.7815 35.1979C79.5839 35.3382 79.3186 35.406 79.1938 35.618C79.0857 35.8015 78.9786 35.7856 78.8134 35.7509C78.519 35.6889 78.3643 35.82 78.3446 36.1214C78.3389 36.2096 78.3398 36.2985 78.3408 36.387L78.341 36.4013C78.3436 36.6472 78.2025 36.8401 78.1096 37.1112C77.996 36.6808 77.9799 36.2956 77.9211 35.9096C77.787 36.153 77.6117 36.3945 77.5931 36.6478C77.5678 36.9912 77.3911 37.0734 77.1193 37.1267C77.0218 37.1459 76.9692 37.1449 76.9519 37.0402C76.9262 36.8848 76.8985 36.7297 76.877 36.5737C76.8554 36.4171 76.84 36.2593 76.7592 36.119C76.7391 36.0843 76.7188 36.036 76.6653 36.0525C76.6238 36.0653 76.6317 36.1108 76.6238 36.1442C76.5844 36.3115 76.5494 36.48 76.5045 36.6458C76.4869 36.7106 76.4787 36.8171 76.3994 36.8121C76.2994 36.8059 76.29 36.6985 76.2829 36.6168L76.2823 36.6105C76.2728 36.5037 76.2841 36.3952 76.2792 36.2878C76.2764 36.2287 76.3053 36.1572 76.2205 36.1057C76.1397 36.3831 75.8831 36.5629 75.8451 36.8639C75.8355 36.9399 75.7582 37.0087 75.7079 37.0778C75.6223 37.1951 75.5245 37.2091 75.3945 37.1343C75.2015 37.0231 75.0203 36.8965 74.8439 36.762C74.5481 36.5364 74.2623 36.2968 73.9307 36.1226C73.7047 36.0038 73.4691 35.9322 73.2104 35.9567C73.042 35.9726 72.8882 36.0308 72.7579 36.135C72.6432 36.2267 72.7347 36.3495 72.7328 36.4583C72.73 36.6185 72.6129 36.6905 72.4896 36.7206C72.354 36.7537 72.3403 36.6204 72.3097 36.5281C72.2519 36.3539 72.3025 36.1244 72.0615 36.0427C72.0523 36.0396 72.0541 35.9924 72.0571 35.9664C72.086 35.7156 71.9588 35.5212 71.8314 35.2751C71.8235 35.3963 71.8448 35.4658 71.7968 35.5332C71.6722 35.7082 71.5572 35.8901 71.4344 36.0665C71.3988 36.1178 71.358 36.1874 71.2851 36.1698C71.2072 36.1511 71.2203 36.0676 71.2124 36.007C71.1362 35.4201 71.1631 34.824 70.9665 34.2467C70.8503 33.9054 70.8881 33.522 70.8631 33.1569C70.8365 32.7704 70.8184 32.3805 70.669 31.9773C70.547 32.2038 70.5673 32.413 70.571 32.617C70.587 33.4925 70.6018 34.3681 70.6284 35.2434C70.6508 35.9809 70.5873 36.6891 70.0414 37.2557C69.8882 37.4148 69.786 37.6388 69.4987 37.6261C69.3835 37.621 69.3284 37.6061 69.2978 37.5002C69.2362 37.2868 69.1658 37.0758 69.1097 36.8609C68.8488 35.8604 68.7307 34.8313 68.5081 33.8231C68.4743 33.6699 68.4689 33.5036 68.3607 33.3463C68.2751 33.7177 68.3358 34.0587 68.3833 34.3988C68.4615 34.9592 68.3876 35.5342 68.5519 36.0872C68.5814 36.1866 68.586 36.3088 68.5019 36.4065C68.319 36.255 68.3063 36.0575 68.2935 35.8569L68.2931 35.8512C68.2712 35.5091 68.307 35.1594 68.1733 34.8311C68.144 34.7594 68.1074 34.6535 68.0274 34.6655C67.9339 34.6797 67.9132 34.7992 67.9276 34.8776C67.9779 35.151 67.9118 35.3992 67.8065 35.6462C67.7824 35.7026 67.7877 35.7731 67.7855 35.8374C67.7802 35.9956 67.532 36.2683 67.3767 36.2814C67.3575 36.283 67.3296 36.2811 67.3191 36.269C67.1604 36.0864 66.8977 35.9884 66.8728 35.6958C66.8626 35.5756 66.8211 35.4582 66.7945 35.3394C66.7283 35.0428 66.7222 34.7328 66.6026 34.4471C66.5823 34.8498 66.6357 35.2523 66.5759 35.6511C66.5598 35.7588 66.579 35.8432 66.629 35.9354C66.746 36.1509 66.8288 36.3798 66.8521 36.6264C66.857 36.6782 66.8895 36.7485 66.808 36.7709C66.7487 36.7871 66.6911 36.7594 66.6524 36.7171C66.6203 36.682 66.5836 36.6296 66.5863 36.5873C66.6072 36.2641 66.4857 35.9884 66.3336 35.7149C66.2844 35.6266 66.2894 35.5066 66.2745 35.4004C66.2375 35.1376 66.2701 34.8673 66.198 34.609C66.1664 34.4959 66.1804 34.4018 66.2432 34.3049C66.3099 34.202 66.3614 34.0895 66.344 33.9616L66.3436 33.9585C66.3372 33.9113 66.3294 33.8537 66.2753 33.836C66.2198 33.8178 66.184 33.8644 66.1513 33.8997C66.0454 34.0137 66.0275 34.1593 66.0367 34.3027C66.0829 35.0223 65.8752 35.7297 65.9369 36.4504C65.9448 36.5427 65.9239 36.6972 65.8168 36.6901C65.7102 36.683 65.7209 36.5452 65.7284 36.4481L65.7293 36.4367C65.7429 36.2564 65.7657 36.0763 65.6378 35.9229C65.5117 35.7716 65.4882 35.5921 65.4668 35.4024C65.4245 35.0284 65.3947 34.6505 65.2877 34.26C65.1962 34.4672 65.2792 34.6769 65.1755 34.8462C65.0717 35.0154 65.014 35.1964 64.9896 35.3906C64.989 35.3954 64.9884 35.4002 64.9878 35.4049C65.0207 35.5852 65.0512 35.7836 65.0648 35.8468C65.067 35.8437 65.0692 35.8406 65.0714 35.8374C65.0734 35.8762 65.0708 35.8748 65.0648 35.8468C65.0213 35.9063 64.9779 35.9359 64.9345 35.9447C64.9248 36.1028 64.9218 36.2613 64.9297 36.4204C64.9337 36.5003 64.9335 36.5923 64.8302 36.6057C64.7203 36.62 64.6853 36.533 64.6678 36.4436C64.6611 36.4092 64.6661 36.3724 64.6673 36.3367C64.6727 36.175 64.6892 36.0152 64.7137 35.8569C64.5495 35.7261 64.3886 35.5274 64.2364 35.7888C64.2236 35.641 63.9698 35.419 64 35.3571C64.3745 34.5893 64.9957 33.965 65.2525 33.1494C65.5816 32.1039 65.7715 31.0366 65.8132 29.9398C65.8257 29.6117 65.9228 29.2861 65.8841 28.9548C65.824 28.4404 65.7996 27.9254 65.8125 27.4078C65.8155 27.2864 65.8019 27.1639 65.7867 27.0431C65.6236 25.742 65.1864 24.534 64.6559 23.3378C63.614 20.9882 61.9297 19.2217 59.8674 17.7749C59.116 17.2479 58.2897 16.8476 57.4758 16.4288C57.3545 16.3664 57.2977 16.3159 57.3812 16.1735C57.4681 16.0252 57.5174 15.8537 57.5233 15.6813C57.5281 15.5417 57.5846 15.46 57.697 15.3876C58.0125 15.1845 58.0452 14.9997 57.8358 14.6789C57.7237 14.5074 57.5792 14.3702 57.3965 14.2781C57.1535 14.1556 56.9176 14.1494 56.6958 14.3325C56.6244 14.3914 56.5498 14.476 56.4572 14.465C56.2438 14.4396 56.1563 14.5915 56.0464 14.72C55.9907 14.7853 55.9371 14.8538 55.8735 14.9106C55.7804 14.9936 55.6455 15.0854 55.5526 14.9917C55.4788 14.9173 55.5992 14.8035 55.664 14.7213C55.8255 14.5166 55.827 14.3201 55.6625 14.1185C55.5422 13.971 55.3818 13.8774 55.2161 13.7901C55.1122 13.7353 55.0266 13.7297 54.9229 13.8051C54.7883 13.9029 54.6256 13.9824 54.4615 13.9058C54.2531 13.8087 54.1243 13.9022 53.9987 14.0444C53.9228 14.1304 53.8483 14.2176 53.77 14.3013C53.5305 14.5571 53.5001 14.5602 53.1857 14.4346C53.0854 14.3946 53.0629 14.3513 53.1314 14.2639C53.2375 14.1285 53.3368 13.9877 53.4449 13.8541C55.8064 10.9376 58.4187 8.27042 61.3068 5.87754C61.5604 5.66743 61.8178 5.4623 62.0452 5.2218C62.3034 4.94875 62.3807 4.6324 62.302 4.26853C62.2667 4.10549 62.2036 3.9549 62.1333 3.80525C61.4332 2.31649 60.1779 1.4768 58.7118 0.918359C57.9008 0.609419 57.381 0.850545 56.973 1.62053C56.7606 2.02148 56.5156 2.39838 56.2429 2.75912C55.7111 3.4626 55.1544 4.14578 54.5871 4.82046C53.3046 6.34586 51.9075 7.76818 50.6104 9.28064C50.223 9.73238 49.7899 10.141 49.3341 10.5245C49.2438 10.6005 49.1755 10.6192 49.0524 10.5695C48.59 10.383 48.1023 10.3163 47.6046 10.3261C47.4808 10.3286 47.3663 10.3723 47.2564 10.4247C46.9514 10.5699 46.9109 10.6888 47.0704 10.9825C47.1799 11.184 47.3002 11.3796 47.4086 11.5816C47.4432 11.646 47.509 11.7288 47.4285 11.796C47.1644 12.0167 46.9612 12.3025 46.6769 12.5005C46.5068 12.6191 46.3488 12.6266 46.2062 12.4508C46.129 12.3555 46.0362 12.3413 45.92 12.3972C45.68 12.5129 45.5743 12.454 45.5724 12.1845C45.5709 11.9722 45.5105 11.82 45.331 11.694C45.1091 11.5382 45.0968 11.4245 45.2393 11.1804C45.3181 11.0454 45.3774 10.9063 45.3424 10.7521C45.2613 10.3952 45.3346 10.0553 45.4239 9.71244C45.4796 9.4984 45.5445 9.27949 45.4886 9.05529C45.4572 8.92984 45.4917 8.84723 45.5987 8.78572C45.7069 8.7235 45.7277 8.63859 45.7002 8.51397C45.6501 8.28681 45.6916 8.05922 45.7217 7.83012C45.7454 7.6497 45.8211 7.55024 45.9864 7.48503C46.1361 7.426 46.3397 7.35541 46.3207 7.17027C46.304 7.00772 46.1017 6.96068 45.9526 6.91662C45.5213 6.78917 45.0848 6.68063 44.6588 6.53413C44.2259 6.38525 43.7843 6.38837 43.3511 6.52191C42.6207 6.74707 41.9089 7.02614 41.2009 7.31382C41.0357 7.38093 40.8775 7.46915 40.749 7.59803C40.5824 7.76515 40.6063 7.89899 40.8156 7.99633C41.0633 8.11153 41.3107 8.58966 41.198 8.83748C41.0142 9.24149 41.1976 9.61261 41.2355 9.99714C41.2429 10.0718 41.3131 10.0943 41.3682 10.1258C41.5998 10.2583 41.7826 10.6945 41.715 10.9811C41.3923 10.5829 41.0143 10.6693 40.6279 10.8453C40.55 10.8808 40.4748 10.923 40.4013 10.9671C40.336 11.0064 40.2781 11.0254 40.2033 10.981C39.9472 10.8295 39.6843 10.8625 39.4182 10.9582C38.7832 11.1865 38.1861 11.4924 37.6174 11.8534L37.5947 11.8677C37.3406 12.0292 37.0913 12.1876 36.7732 12.1842C36.7134 12.1835 36.6434 12.2108 36.5947 12.2474C36.414 12.3832 36.2052 12.4304 35.9901 12.4368C35.4301 12.4535 34.9893 12.6891 34.5919 13.0839C33.9572 13.7145 33.2686 14.2898 32.6745 14.9634C32.5416 15.1141 32.384 15.2554 32.165 15.2464C31.9228 15.2365 31.6833 15.2551 31.4431 15.2737L31.4163 15.2758C31.3164 15.2835 31.2172 15.2765 31.1214 15.2374C30.8965 15.1457 30.8603 15.0891 30.9668 14.8689C31.1264 14.5391 31.0997 14.2181 30.9765 13.8892C30.9088 13.7083 30.8487 13.5242 30.7913 13.3396C30.7668 13.2609 30.744 13.1769 30.7951 13.0864C30.8309 13.1011 30.8631 13.1148 30.8956 13.1276C31.3652 13.3123 31.6682 13.0879 31.6195 12.5905C31.614 12.534 31.597 12.4811 31.6277 12.4236C31.7188 12.2532 31.8077 12.0814 31.8916 11.9072C31.9502 11.7855 32.0435 11.7292 32.1741 11.7078C32.4427 11.6638 32.4976 11.5739 32.422 11.3132C32.3982 11.231 32.3629 11.1515 32.327 11.0735C32.2415 10.8872 32.2321 10.7019 32.3147 10.5114C32.3458 10.4396 32.3863 10.3604 32.3822 10.2869C32.3723 10.1077 32.4396 10.084 32.5947 10.1316C32.7187 10.1696 32.8517 10.1754 32.8192 9.97172C32.7612 9.60701 32.6635 9.25677 32.4441 8.95204C32.2466 8.67782 32.2668 8.28046 32.4919 8.01983C32.5292 7.97652 32.5691 7.93427 32.5996 7.8863C32.7189 7.69916 32.6875 7.58632 32.4856 7.49488C32.2857 7.40438 32.0714 7.38733 31.8557 7.39558C30.8754 7.43306 29.966 7.73898 29.088 8.15094C28.6294 8.3661 28.1978 8.6407 27.7018 8.77183C27.654 8.78445 27.6078 8.80702 27.5644 8.83137C27.4452 8.89828 27.3159 8.96238 27.329 9.13102C27.3412 9.28972 27.4715 9.33334 27.5919 9.37879C27.6854 9.41405 27.7835 9.43667 27.8774 9.47071C27.9366 9.49216 28.0065 9.51088 28.0214 9.58557C28.0705 9.83033 28.2183 10.0295 28.3197 10.2501C28.5693 10.7935 27.9972 11.6336 27.4017 11.5567C27.1487 11.5241 26.9974 11.5988 26.8415 11.7601C26.7271 11.8784 26.6033 11.9877 26.4806 12.0976C25.2661 13.185 24.1949 14.3879 23.4531 15.8597C23.2517 16.2592 23.0847 16.6637 23.0423 17.1182C23.025 17.3041 22.9322 17.5087 22.7763 17.6068C22.6267 17.7009 22.5262 17.8123 22.4465 17.9565C22.2905 18.2387 22.1324 18.52 21.9849 18.8068C21.646 19.4655 21.2834 20.1026 20.7388 20.6233C20.4228 20.9253 20.4051 21.3783 20.6354 21.7739C20.7372 21.9487 20.8828 22.0893 21.0034 22.2491C21.2785 22.6136 21.5927 22.9637 21.6123 23.4558C21.6271 23.83 21.6776 24.1985 21.7441 24.5658C21.7596 24.6513 21.7527 24.7363 21.736 24.8223C21.7086 24.9634 21.6448 25.0408 21.4884 25.0696C21.1643 25.1293 20.855 25.2432 20.5714 25.4173L20.5684 25.4191C20.5034 25.459 20.4421 25.4966 20.4315 25.5915C20.3863 25.9979 20.3204 26.4023 20.3478 26.8139C20.3546 26.9161 20.3711 27.0107 20.4312 27.0978C20.6778 27.4552 20.6684 27.5511 20.3425 27.835C20.0322 28.1053 19.7777 28.4337 19.8187 28.8488C19.8629 29.2969 19.6663 29.6245 19.4598 29.9685L19.4431 29.9962C19.3328 30.1802 19.2421 30.3761 19.143 30.5668C19.09 30.6689 19.0363 30.7712 18.9515 30.8507C18.8259 30.9685 18.5526 30.9347 18.5175 30.7884C18.4138 30.3564 18.3735 29.9322 18.7585 29.5958C18.8391 29.5254 18.908 29.4416 18.983 29.3646C19.1846 29.1575 19.2744 28.9154 19.2463 28.6215C19.2272 28.4222 19.2375 28.2198 19.2381 28.0189C19.2417 26.6761 19.2534 25.3321 19.0088 24.0049C18.9601 23.7409 18.9415 23.5106 19.1032 23.2778C19.1735 23.1764 19.1981 23.0389 19.2277 22.914C19.289 22.6561 19.319 22.3889 19.3995 22.1377C19.537 21.7083 19.5311 21.2945 19.3625 20.8771C19.2214 20.5277 19.2096 20.1659 19.2866 19.7985C19.3519 19.4872 19.3308 19.1857 19.1782 18.8993C19.0601 18.6776 19.0283 18.4407 19.0475 18.1902C19.0649 17.9629 19.0988 17.7307 18.9938 17.5118C18.971 17.4644 19.0023 17.4352 19.0219 17.3965C19.1822 17.0804 19.4589 16.8872 19.7369 16.6931L19.7547 16.6807C20.0372 16.4833 20.3441 16.364 20.6903 16.3466C20.8692 16.3376 21.0468 16.3069 21.2119 16.2342C21.828 15.9629 22.4059 15.6459 22.8293 15.0878C23.0211 14.835 23.1305 14.5818 23.1504 14.2677C23.1909 13.6288 23.1302 12.9906 23.1586 12.3516C23.1908 11.6279 23.2349 10.9042 23.1767 10.1779C23.1387 9.70385 22.967 9.35042 22.4941 9.19111C22.4203 9.16626 22.3535 9.12106 22.2823 9.08775C22.1904 9.04477 22.1491 8.98118 22.1384 8.87269C22.0734 8.21142 21.761 7.68683 21.2724 7.24329C21.0095 7.00457 20.73 6.92082 20.3935 6.97394C20.2101 7.0029 20.0272 7.03571 19.8432 7.05956C19.5235 7.101 19.2603 7.20062 19.2501 7.59032ZM12.8869 21.9122C12.9985 22.0588 13.0484 22.2116 13.0157 22.3929C13.0512 22.566 12.9847 22.7057 12.8933 22.8525C12.5064 23.4736 12.353 24.1742 12.2407 24.8857C12.0714 25.9587 12.0374 27.0431 11.9972 28.1256C11.979 28.6171 11.8995 29.0945 11.8009 29.5725C11.7473 29.8323 11.807 29.9405 12.0465 30.0465C12.113 30.076 12.1825 30.0989 12.2518 30.1218L12.268 30.1271C12.582 30.231 12.5938 30.2411 12.5801 30.5645C12.5728 30.7362 12.5477 30.907 12.5305 31.0783C12.498 31.4009 12.5729 31.6798 12.8016 31.9276C13.0519 32.1987 13.0426 32.294 12.8232 32.5802C12.747 32.6797 12.6822 32.7817 12.7022 32.9132C12.7213 33.0385 12.6327 33.1114 12.5717 33.1959C12.2823 33.5963 12.2874 33.7322 12.6126 34.0965C12.6984 34.1926 12.7879 34.286 12.8428 34.4055C12.9589 34.6581 12.8832 34.7915 12.6289 34.8853C12.3012 35.0063 11.9484 34.9271 11.6133 35.0572C11.4794 35.1092 11.2579 35.0341 11.0818 35.1061C11.0381 35.1239 10.9642 35.1327 10.9688 35.1894C10.9904 35.4585 10.8689 35.343 10.7492 35.2835C10.6178 35.2182 10.522 35.2882 10.5285 35.4357C10.5307 35.485 10.5489 35.5336 10.5599 35.5824C10.5874 35.7055 10.5725 35.7742 10.4147 35.7393C10.2695 35.7071 10.159 35.6498 10.0648 35.5265C9.86682 35.2677 9.6827 35.007 9.63875 34.6722C9.61779 34.5125 9.61125 34.3473 9.69399 34.2095C10.0148 33.6754 9.97412 33.1112 9.84332 32.5413C9.77769 32.2553 9.68842 31.9745 9.60224 31.6937C9.52857 31.4537 9.45154 31.2152 9.42526 30.9638C9.40182 30.7395 9.33072 30.5288 9.22782 30.3307C8.97281 29.8398 8.76731 29.329 8.59074 28.8049C8.45261 28.3948 8.26846 28.0096 7.97285 27.6834C7.77966 27.4701 7.71101 27.2128 7.76716 26.923C7.78456 26.8332 7.80523 26.7666 7.91041 26.7846C8.08938 26.8153 8.14862 26.6925 8.2002 26.5615C8.26991 26.3844 8.23679 26.204 8.19017 26.0317C8.0871 25.6509 7.99329 25.2682 7.92395 24.8798C7.86555 24.5527 7.67789 24.3038 7.45188 24.0779C7.3474 23.9735 7.26014 23.8703 7.30093 23.7035C7.32371 23.6104 7.28549 23.5172 7.23859 23.4361C7.18134 23.337 7.18967 23.2452 7.20454 23.1321C7.23847 22.8739 7.32605 22.6929 7.59518 22.6094C7.77426 22.5539 7.84378 22.4049 7.82132 22.2037C7.77042 21.7476 7.72867 21.2902 7.69923 20.8322C7.69047 20.696 7.62368 20.5246 7.81754 20.4368C8.00106 20.3537 8.13755 20.441 8.26263 20.5545C8.44501 20.72 8.62611 20.8736 8.89241 20.8846C8.99066 20.8886 9.07063 20.9698 9.14112 21.0413L9.14221 21.0424C9.29087 21.1932 9.4694 21.2647 9.67989 21.2713C9.9894 21.281 10.2807 21.3415 10.562 21.495C10.8434 21.6486 11.1614 21.5951 11.4657 21.5413C11.7971 21.4827 12.1149 21.3712 12.4332 21.2653C12.5754 21.218 12.653 21.2174 12.678 21.3985C12.7034 21.5829 12.7734 21.7632 12.8869 21.9122ZM2.77331 32.8458C2.82237 32.6664 2.84392 32.4818 2.74063 32.2869C2.64966 32.539 2.57019 32.7752 2.47931 33.0068C2.38718 33.2415 2.26041 33.4581 2.09845 33.6519C2.05245 33.7069 2.01085 33.8037 1.91455 33.7135C1.84852 33.6517 1.71202 33.6142 1.80624 33.4842C1.93533 33.3061 1.87215 33.1386 1.8115 32.9581C1.69259 32.6042 1.58599 32.2462 1.67226 31.8635C1.70342 31.7252 1.77328 31.6207 1.87035 31.5174C2.22581 31.1388 2.67163 30.8846 3.09012 30.5919C3.42774 30.3557 3.812 30.4098 3.95348 30.7976C3.98634 30.8877 4.05343 30.9828 4.1316 31.0352C4.3542 31.1846 4.42403 31.4096 4.42725 31.6464C4.43724 32.379 4.74162 32.8825 5.44951 33.1391C5.78764 33.2617 6.0073 33.5562 6.21616 33.8409C6.31193 33.9714 6.42773 34.0631 6.57304 34.136C7.00644 34.3534 7.36635 34.6528 7.52347 35.1341C7.61525 35.4153 7.59918 35.716 7.63591 36.007C7.65365 36.1476 7.47515 36.2614 7.51677 36.4298C7.52199 36.4509 7.47745 36.4584 7.44635 36.455C7.31663 36.4408 7.0983 36.1199 7.13923 35.9952C7.24233 35.681 7.2589 35.3544 7.30839 34.9977C7.07514 35.1231 6.95454 35.3118 6.80494 35.4705C6.74478 35.5343 6.71211 35.7057 6.55653 35.5473C6.49978 35.4895 6.41255 35.5907 6.37766 35.6575C6.29425 35.8174 6.19215 35.8075 6.06507 35.7169C5.96008 35.6421 5.84979 35.5762 5.6873 35.6258C5.79809 35.195 6.19525 34.9124 6.13483 34.4184C5.88367 34.6834 5.73551 34.9792 5.53977 35.239C5.50234 35.2886 5.48053 35.3577 5.40814 35.3717C5.22116 35.4079 5.14795 35.3212 5.20484 35.1352C5.22282 35.0765 5.27564 35.0274 5.258 34.9569C5.02725 35.0303 5.02725 35.0303 4.93929 34.7406C4.84075 34.8806 4.71778 34.9999 4.6643 35.145C4.59441 35.3347 4.4318 35.405 4.29715 35.5085C4.18596 35.594 4.10945 35.4992 4.0737 35.3986C4.02587 35.264 3.99769 35.1225 3.95468 34.986C3.93622 34.9274 3.91971 34.8456 3.84188 34.8488C3.76668 34.8518 3.74676 34.9283 3.73505 34.992C3.71831 35.083 3.70907 35.1755 3.69656 35.2678C3.53442 35.2606 3.55257 35.152 3.56963 35.0498L3.57061 35.044C3.62004 34.7471 3.67882 34.4517 3.72275 34.154C3.76065 33.8972 3.74521 33.6444 3.59484 33.3547C3.49291 33.8915 3.27815 34.3391 3.22699 34.8396C3.09054 34.8034 3.0778 34.6986 3.05698 34.6037C3.03704 34.5127 3.02888 34.4192 3.01017 34.328C2.98759 34.2178 2.93975 34.1664 2.84662 34.2755C2.79278 34.3386 2.72389 34.4078 2.65023 34.348C2.58089 34.2917 2.63519 34.2002 2.6648 34.1292C2.71156 34.017 2.76831 33.9089 2.81413 33.7964C2.86502 33.6713 2.84875 33.5708 2.68422 33.5948C2.5181 33.6189 2.54484 33.5398 2.57962 33.438C2.64679 33.2415 2.71859 33.046 2.77331 32.8458ZM58.1703 29.2567C58.5494 29.2357 58.9273 29.2417 59.2689 29.2442C60.1408 29.2881 60.975 29.3504 61.8122 29.3198C61.9179 29.3159 62.0268 29.3299 62.1305 29.3526C62.4098 29.4135 62.5298 29.5547 62.5561 29.842C62.5864 30.1744 62.5429 30.5016 62.4712 30.8248C62.3346 31.44 62.2335 32.0656 61.9705 32.6455C61.8492 32.913 61.7948 32.9352 61.5044 32.8692C61.3628 32.8371 61.233 32.7783 61.1127 32.7004C60.0673 32.0235 59.0343 31.3296 58.0844 30.5185C57.9809 30.4301 57.9391 30.3481 57.9584 30.2091C57.9891 29.988 57.9457 29.7656 57.9305 29.5437C57.9188 29.3753 57.959 29.2683 58.1703 29.2567ZM59.3172 28.13L59.3167 28.157C58.917 28.157 58.5172 28.1527 58.1177 28.1596C57.9969 28.1617 57.9304 28.1217 57.9028 28.0052C57.8681 27.8591 57.8229 27.7154 57.7927 27.5685C57.7142 27.1872 57.8244 26.891 58.1522 26.6566C58.7227 26.2489 59.3116 25.8699 59.8916 25.477C60.2525 25.2325 60.6072 24.9788 60.9691 24.7358C61.5144 24.3697 61.8351 24.4584 62.0408 25.0852C62.2951 25.8606 62.5229 26.6481 62.4698 27.4825C62.4498 27.7954 62.3805 27.8767 62.073 27.9454C61.7637 28.0146 61.4471 27.9905 61.1344 28.0171C60.5298 28.0686 59.923 28.0939 59.3172 28.13ZM56.5021 32.2382C56.3868 32.0363 56.3025 31.8256 56.299 31.5888C56.2948 31.04 56.3955 30.9688 56.8904 31.1695C57.3469 31.3547 57.7469 31.6323 58.1081 31.9607C58.8027 32.592 59.5426 33.1681 60.2574 33.7747C60.3988 33.8947 60.538 34.0214 60.6577 34.1625C60.919 34.4705 60.9582 34.7739 60.7408 35.1132C60.4471 35.5713 60.1153 36.0054 59.746 36.4055C59.5215 36.6488 59.3194 36.6347 59.0789 36.4015C58.9392 36.2659 58.831 36.105 58.7273 35.9414C57.956 34.725 57.2161 33.4894 56.5021 32.2382ZM60.5912 22.4872C60.6812 22.6431 60.7577 22.805 60.7622 22.9907C60.7646 23.203 60.6333 23.3391 60.4811 23.4487C59.8124 23.9302 59.2012 24.4838 58.5515 24.9889C58.3879 25.1161 58.2355 25.258 58.0792 25.3945C57.9766 25.4841 57.8733 25.5712 57.7501 25.633C57.6213 25.6976 57.5419 25.7183 57.5103 25.5233C57.4392 25.0832 57.1546 24.7961 56.7696 24.6098C56.6299 24.5422 56.6224 24.4778 56.6814 24.3486C57.1984 23.2161 57.8534 22.1644 58.5396 21.131C58.6528 20.9604 58.8834 20.902 59.0962 20.9799C59.1691 21.0066 59.2422 21.043 59.3034 21.0905C59.8101 21.4835 60.2665 21.9247 60.5912 22.4872ZM32.7146 18.0705C32.8068 18.0617 32.8986 18.0488 32.9535 18.0422C33.3456 18.0574 33.6797 18.1501 34.0009 18.2987C34.0945 18.342 34.1192 18.4046 34.1088 18.5031C33.9997 19.5288 33.9213 20.5579 33.7668 21.5784C33.6894 22.0892 33.4239 22.5184 33.1386 22.9294C33.0681 23.031 32.9017 23.0935 32.7561 23.1064C32.6783 23.1134 32.5191 23.1547 32.6207 22.9661C32.6254 22.9575 32.6152 22.9384 32.6083 22.9262C32.2548 22.2998 32.2388 21.5792 32.0502 20.9068C32.0154 20.7828 31.9839 20.6579 31.9476 20.5344C31.8869 20.3279 31.8946 20.1263 31.9692 19.9235C32.0831 19.6141 32.1373 19.2872 32.3666 19.0186C32.5261 18.8318 32.5625 18.5656 32.5105 18.3217C32.4675 18.1197 32.5613 18.0851 32.7146 18.0705ZM55.3703 36.8018C55.3799 36.3933 55.3741 35.9843 55.3741 35.5756C55.4218 34.8873 55.4228 34.1981 55.5186 33.5144C55.5301 33.4327 55.5109 33.3172 55.5946 33.285C55.6924 33.2474 55.7582 33.352 55.8236 33.4132C55.9661 33.5464 56.0593 33.7155 56.1527 33.8848L56.1641 33.9055C56.7318 34.9336 57.3008 35.9611 57.872 36.9873C58.0052 37.2265 58.1269 37.4675 58.1603 37.745C58.1721 37.843 58.1536 37.9003 58.0527 37.9441C57.7948 38.0562 57.6028 38.3037 57.2943 38.3178C57.2666 38.319 57.2384 38.3592 57.2145 38.3851C57.0401 38.5738 56.9717 38.5651 56.8452 38.3362C56.6834 38.0437 56.6824 38.0414 56.3859 38.1731C56.3033 38.2097 56.258 38.2116 56.233 38.1086C56.1226 37.6546 55.8332 37.3234 55.486 37.035C55.4105 36.9723 55.3677 36.9118 55.3703 36.8018ZM55.4264 22.5073L55.4548 22.5065C55.5039 21.7842 55.5548 21.0619 55.6014 20.3394C55.6265 19.9486 55.826 19.6352 56.0382 19.3282C56.1318 19.1927 56.2821 19.2132 56.4116 19.2461C56.7757 19.3386 57.0742 19.5407 57.3063 19.8378C57.439 20.0076 57.3984 20.1956 57.3303 20.3703C57.1018 20.9571 56.8685 21.5422 56.6261 22.1233C56.425 22.6053 56.2081 23.0807 55.9989 23.5593C55.9324 23.7115 55.8612 23.8592 55.7148 23.9532C55.5869 24.0352 55.4944 24.04 55.4559 23.8585C55.4363 23.7661 55.4268 23.6749 55.4266 23.5818C55.426 23.2237 55.4264 22.8655 55.4264 22.5073ZM38.9372 14.6679C38.9261 14.7312 38.9271 14.7966 38.9185 14.9195C38.8985 15.0809 38.9281 15.2924 39.0376 15.4858C39.1927 15.7599 39.2008 16.0441 39.1117 16.3381C39.0639 16.4958 39.0144 16.653 38.9676 16.8111C38.8599 17.1744 38.6299 17.2457 38.3169 17.0092C37.6272 16.4879 36.8879 16.0589 36.0595 15.8021C35.8997 15.7526 35.9131 15.6872 35.9871 15.5793C36.1211 15.3836 36.2743 15.2196 36.5366 15.2247L36.5405 15.2248C36.561 15.2252 36.5864 15.2258 36.5989 15.2146C36.8437 14.9962 37.1971 14.9878 37.4432 14.7798C37.6456 14.6088 37.8697 14.5304 38.1307 14.5289C38.3377 14.5276 38.5464 14.5241 38.7508 14.496C38.9047 14.4749 38.9654 14.5079 38.9372 14.6679ZM25.0971 28.8184C24.981 28.5122 24.9543 28.1923 24.94 27.9115C24.9556 27.3655 25.0434 26.8741 25.186 26.3911C25.2413 26.204 25.3688 26.1269 25.55 26.1198C25.7274 26.1129 25.8883 26.1755 26.0361 26.2641C26.4827 26.532 26.9235 26.8099 27.3715 27.0753C27.5019 27.1526 27.5114 27.2276 27.4359 27.3489C26.9728 28.0931 26.3233 28.6285 25.5554 29.0221C25.2864 29.1601 25.2052 29.1034 25.0971 28.8184ZM44.2014 33.2847C44.0434 33.1197 43.9278 32.9203 43.8273 32.6786C43.7138 33.0084 43.9175 33.3157 43.7928 33.6254C43.6865 33.5638 43.6752 33.4641 43.6655 33.3689C43.6495 33.2121 43.6451 33.0541 43.6289 32.8973C43.6009 32.627 43.5575 32.6016 43.3068 32.7121C43.2643 32.6154 43.2911 32.518 43.3015 32.4239C43.3117 32.3315 43.3338 32.2404 43.3479 32.1484C43.4062 31.7668 43.4066 31.7668 43.7865 31.7295L43.7957 31.7286C43.8821 31.7201 43.9466 31.7366 44.0085 31.7955C44.1433 31.9238 44.2875 32.0425 44.4165 32.1762C44.5191 32.2826 44.6131 32.3729 44.7806 32.3391C44.8898 32.3171 44.9392 32.4088 44.9837 32.496C45.1698 32.8603 45.3098 33.2442 45.4621 33.6228C45.6201 34.0155 45.7832 34.4054 46.0297 34.7528C46.1183 34.8777 46.0889 35.0188 46.0723 35.1479C46.0564 35.2719 45.9852 35.1875 45.942 35.1503C45.9022 35.1159 45.8889 35.0274 45.8183 35.0596C45.7494 35.0909 45.7698 35.1737 45.7746 35.2338C45.7911 35.4378 45.8983 35.6278 45.869 35.8399C45.8615 35.8943 45.8876 35.9668 45.8192 35.9902C45.7366 36.0185 45.7093 35.9447 45.6833 35.8868C45.6049 35.7122 45.5366 35.5422 45.5576 35.3363C45.5876 35.0417 45.5594 34.746 45.3944 34.4854C45.2773 34.3003 45.2296 34.3022 45.1204 34.484C45.0725 34.5638 45.0315 34.6477 44.9841 34.7277C44.9499 34.7857 44.9379 34.8722 44.8387 34.8573C44.7534 34.8446 44.6887 34.7961 44.6625 34.7176C44.6217 34.5959 44.5982 34.4685 44.5606 34.3456C44.5448 34.2942 44.535 34.2205 44.4659 34.2181C44.4078 34.2161 44.3619 34.2614 44.3318 34.3135C44.2577 34.4413 44.2473 34.5839 44.2369 34.7269L44.2368 34.7285C44.2254 34.8858 44.2183 35.0453 44.1273 35.1827C44.0904 35.2384 44.0367 35.2772 43.9674 35.2781C43.8838 35.2791 43.8981 35.2024 43.8777 35.1538C43.8528 35.0944 43.8344 35.0312 43.8022 34.9761C43.6606 34.7345 43.7025 34.5098 43.8556 34.2926C43.9834 34.1114 44.1152 33.9327 44.2376 33.7479C44.3434 33.5881 44.3481 33.4381 44.2014 33.2847ZM18.6183 9.8268C18.7281 9.67787 18.8123 9.524 18.73 9.3092C18.8151 9.36013 18.9233 9.39253 18.981 9.46534C19.1794 9.71589 19.407 9.84451 19.7388 9.7726C19.869 9.74439 19.9566 9.93247 19.8473 10.0702C19.6917 10.2664 19.7323 10.4656 19.7417 10.6773C19.7611 11.1143 19.7667 11.552 19.7838 11.9891C19.788 12.0978 19.7682 12.173 19.669 12.2399C19.4811 12.3666 19.3761 12.5586 19.3676 12.7841C19.3624 12.9227 19.2877 12.9785 19.1814 13.0035C19.0714 13.0293 19.0411 12.9256 19.0035 12.8524C18.9513 12.7507 18.9117 12.6425 18.8603 12.5403C18.7281 12.2775 18.5217 12.2013 18.257 12.3223C18.1735 12.3605 18.1023 12.425 18.0204 12.4677C17.9378 12.5107 17.8726 12.6823 17.7923 12.6037C17.6723 12.4864 17.5377 12.3467 17.5477 12.1439C17.5527 12.0421 17.6251 12.0377 17.6959 12.0269C17.8933 11.9967 18.097 11.9887 18.2867 11.9325C18.6509 11.8245 18.6761 11.7525 18.6109 11.4544C18.5579 11.2124 18.6088 10.9685 18.6198 10.7254C18.6306 10.4894 18.6567 10.2503 18.572 10.0222C18.541 9.9387 18.5756 9.88487 18.6183 9.8268ZM54.3049 24.8008C54.2986 24.8499 54.2827 24.8977 54.2665 24.9662C54.1255 24.8622 54.0709 24.7346 54.0376 24.605C53.9274 24.1747 53.7081 23.7999 53.4825 23.4241C53.0416 22.6894 53.0745 22.4508 53.6795 21.8502C53.8469 21.6841 54.0299 21.5338 54.2044 21.3747C54.3336 21.2569 54.4103 21.3118 54.4452 21.4547C54.4705 21.5584 54.4856 21.6673 54.4864 21.774C54.4937 22.7869 54.4335 23.796 54.3049 24.8008ZM52.7449 32.4695C52.8078 32.2868 52.8644 32.1042 52.7533 31.8598C52.623 32.1429 52.5121 32.3865 52.3988 32.6289C52.2939 32.8531 52.2773 32.8642 52.1136 32.6896C51.6175 32.1604 51.5986 32.2282 52.1492 31.7773C52.5127 31.4796 52.9276 31.2458 53.3155 30.9775C53.3996 30.9194 53.4442 30.9629 53.4946 31.0123L53.4974 31.015C53.8142 31.3247 53.7167 32.1715 53.3405 32.4166C53.235 32.4853 53.2218 32.4266 53.2109 32.3435C53.1846 32.1447 53.1618 31.9454 53.1287 31.7477C53.1164 31.6745 53.1155 31.5907 53.0341 31.5216C53.0233 32.0602 52.9338 32.566 52.6769 33.0456C52.609 32.8646 52.6088 32.8645 52.7449 32.4695ZM35.1846 21.6788C35.0745 21.6331 35.1596 21.512 35.1319 21.445C35.1727 20.9444 35.3152 20.4868 35.4736 20.033C35.5303 19.8708 35.5991 19.7114 35.6387 19.5451C35.6843 19.3533 35.754 19.3301 35.9039 19.4554C36.1251 19.6403 36.3227 19.8429 36.4808 20.086C36.5959 20.2631 36.5874 20.4323 36.4467 20.5763C36.1174 20.9136 35.7684 21.2312 35.454 21.5839C35.3878 21.6582 35.2811 21.7189 35.1846 21.6788ZM63.1153 37.1985C63.236 37.0869 63.242 36.8708 63.4417 36.773C63.4083 37.117 63.3092 37.4187 63.1687 37.7067C62.8041 38.4541 62.2025 38.9722 61.5201 39.4099C61.4846 39.4327 61.4429 39.4465 61.403 39.4615L61.3971 39.4637C61.3309 39.4885 61.2536 39.5176 61.1999 39.4662C61.1327 39.4019 61.2058 39.3317 61.2348 39.2738C61.3747 38.9949 61.5717 38.7551 61.8063 38.5561C62.2884 38.1472 62.653 37.6264 63.1153 37.1985ZM36.7602 33.6864C36.8014 33.3965 36.6563 33.179 36.4827 32.9464C36.3843 33.195 36.5471 33.4275 36.4724 33.6765C36.3348 33.6275 36.281 33.5158 36.2285 33.4066L36.2252 33.3996C36.1571 33.258 36.1049 33.1077 35.9623 33.0168C35.8791 32.9638 35.9117 32.8939 35.9474 32.8288C36.0434 32.654 36.2121 32.6059 36.386 32.6208C36.5229 32.6326 36.6362 32.6078 36.7514 32.5439C36.839 32.4954 36.9331 32.4634 37.0365 32.4631C37.1945 32.4627 37.3132 32.4955 37.3211 32.693C37.3254 32.7983 37.3676 32.9019 37.3918 33.0065C37.4112 33.0901 37.4387 33.1732 37.4457 33.258C37.4571 33.3972 37.4416 33.5406 37.3087 33.618C37.1827 33.6913 37.1017 33.579 37.0119 33.4909C36.9566 33.6364 37.0251 33.7566 37.0294 33.8793C37.0328 33.9758 37.0305 34.0894 36.917 34.1036C36.7883 34.1198 36.7575 34.0031 36.7479 33.8999C36.7413 33.8296 36.7502 33.7569 36.7602 33.6864ZM28.3396 24.8893C28.5709 24.8861 28.4643 25.1122 28.5098 25.2131C28.5159 25.5166 28.3849 25.7584 28.2817 26.0085C28.25 26.0854 28.1911 26.0749 28.1418 26.0415C27.7818 25.7977 27.3748 25.6336 27.0251 25.3726C26.8985 25.2781 26.8904 25.2134 27.0498 25.1402C27.4607 24.9516 27.8978 24.8953 28.3396 24.8893ZM34.2184 34.0243C34.1598 34.2513 34.1976 34.4846 34.1078 34.7167C33.8988 34.4857 33.8398 34.2529 33.9499 33.9793C34.0182 33.8098 34.1115 33.7467 34.2925 33.818C34.5451 33.9175 34.7266 34.0874 34.8475 34.3274C34.9616 34.5537 35.0181 34.7974 35.0615 35.0451C35.0757 35.1262 35.0822 35.1918 34.9835 35.2371C34.8531 35.2968 34.9086 35.4602 34.8349 35.5547C34.8062 35.5915 34.8302 35.6744 34.7628 35.6674C34.6756 35.6583 34.6035 35.6419 34.5801 35.513C34.526 35.2151 34.4934 34.9189 34.502 34.6161C34.5087 34.3824 34.4852 34.155 34.2184 34.0243ZM49.0451 35.5359C49.0944 35.5888 49.1057 35.6462 49.1031 35.6581C49.0744 35.8244 49.091 35.9799 48.9889 36.0219C48.8877 36.0634 48.8189 35.92 48.7485 35.8471L48.7371 35.8354C48.6108 35.7047 48.4897 35.5796 48.4672 35.3668C48.4562 35.2634 48.4116 34.9936 48.1487 35.1282C48.1383 35.1336 48.1038 35.1171 48.0987 35.1038C48.023 34.9034 47.8635 34.7436 47.8224 34.5271C47.8099 34.4616 47.81 34.387 47.8631 34.3479C47.9396 34.2916 47.9732 34.3846 48.0145 34.4214C48.3936 34.7595 48.7 35.1658 49.0451 35.5359ZM51.2659 30.6248C51.5698 30.5557 51.8813 30.5194 52.1292 30.4261C52.296 30.4043 52.2953 30.4653 52.2604 30.5472C52.2112 30.6627 52.1247 30.7472 52.0284 30.8223C51.8082 30.994 51.5621 31.1228 51.3197 31.2588C51.2078 31.3216 51.126 31.2991 51.0677 31.1995C50.819 30.7747 50.777 30.736 51.2659 30.6248ZM53.926 33.4204C54.0181 33.4608 53.9807 33.5862 53.9957 33.6467C53.9818 33.8923 53.9044 34.0952 53.8597 34.3051C53.8505 34.3481 53.8393 34.3819 53.7766 34.3736C53.6016 34.3506 53.4097 34.0203 53.4919 33.8651C53.5486 33.7581 53.6112 33.6518 53.6871 33.5583C53.7465 33.485 53.8196 33.3737 53.926 33.4204ZM28.0384 20.4419C28.0143 20.3316 28.1424 20.356 28.199 20.3287C28.4624 20.322 28.7645 20.7474 28.6754 20.9875C28.6322 21.1042 28.4557 21.1468 28.3378 21.0623C28.1273 20.9115 28.0882 20.6692 28.0384 20.4419ZM50.2013 25.3729C50.2612 25.1857 50.4166 25.124 50.5647 25.1027C50.6914 25.1033 50.7767 25.134 50.8433 25.2044C50.8871 25.2508 50.9339 25.3084 50.915 25.3732C50.8942 25.4446 50.8189 25.4062 50.768 25.4175C50.6233 25.4495 50.4768 25.4748 50.3345 25.5151C50.1866 25.557 50.167 25.4803 50.2013 25.3729ZM31.9092 35.3149C31.9358 35.2295 31.8466 35.0936 31.9883 35.0528C32.0999 35.0661 32.1855 35.0995 32.1885 35.2145C32.191 35.3064 32.1847 35.4111 32.0527 35.4058C31.9925 35.4034 31.8766 35.4196 31.9092 35.3149Z" fill="#FBF9FF"/>
</g>
<defs>
<clipPath id="clip0_4_8">
<rect width="82.2857" height="45" fill="white"/>
</clipPath>
</defs>
</svg>
